<svg xmlns="http://www.w3.org/2000/svg" width="140" height="71.1" viewBox="0 0 140 71.1"><defs><style>.cls-1{fill:#020202;}</style></defs><title>dårlige_point</title><g id="Layer_7" data-name="Layer 7"><g id="Layer_4" data-name="Layer 4"><path d="M69,42.33H56.82l6.39-8c0-.06.09-.11.12-.15l.15-.18a1,1,0,0,1,.13-.15l.12-.17.15-.19a1.91,1.91,0,0,0,.17-.22l.17-.2c.75-.93,1.34-1.69,1.74-2.28a5.28,5.28,0,0,0,.74-1.46,5.36,5.36,0,0,0,.2-1.51,4.63,4.63,0,0,0-.52-2.19,5.66,5.66,0,0,0-1.64-1.82c.77,0,1.69-.07,2.76-.07a23.76,23.76,0,0,1,3.22.16,7.26,7.26,0,0,1,2,.54,7.68,7.68,0,0,1,3.58,3,8.56,8.56,0,0,1,.89,1.82,7.63,7.63,0,0,1,.39,1.91.25.25,0,0,1,0,.1,1,1,0,0,0,0,.17,2.18,2.18,0,0,1,0,.28v.16Zm-7.7-18.46a4,4,0,0,1,2,.54,4,4,0,0,1,1.46,1.47,4,4,0,0,1,.54,2,3.82,3.82,0,0,1-.54,2,4.14,4.14,0,0,1-1.46,1.48,4,4,0,0,1-2,.55,4,4,0,0,1-2-.55,4.06,4.06,0,0,1-1.46-1.48,4,4,0,0,1,0-4,4.06,4.06,0,0,1,1.46-1.48A3.88,3.88,0,0,1,61.31,23.87Zm9.82,18.46,6.53-8.26v8.26Z"/><path class="cls-1" d="M126.05,71.1H14A13.46,13.46,0,0,1,.5,57.65V13.45A13.46,13.46,0,0,1,14,0h112.1A13.46,13.46,0,0,1,139.5,13.45v44.2A13.46,13.46,0,0,1,126.05,71.1ZM14,11.53A2,2,0,0,0,12,13.45v44.2A2,2,0,0,0,14,59.57h112.1A2,2,0,0,0,128,57.65V13.45a2,2,0,0,0-1.92-1.92Z"/><circle class="cls-1" cx="12.35" cy="11.85" r="10.57"/><circle class="cls-1" cx="127.01" cy="11.85" r="10.57"/><circle class="cls-1" cx="128.29" cy="58.61" r="10.57"/><circle class="cls-1" cx="12.35" cy="58.61" r="10.57"/></g></g></svg>
