<svg xmlns="http://www.w3.org/2000/svg" width="1599" height="899" viewBox="0 0 1599 899"><defs><style>.cls-1{fill:#eae16a;}.cls-2{fill:#e8cd5d;}</style></defs><title>forgrund_startskaerm</title><g id="Layer_7" data-name="Layer 7"><g id="Layer_4" data-name="Layer 4"><path class="cls-1" d="M590.35,225.13l-19.74.54,1.93-9.66,14.15-.78,5.14,2.48Zm2.38-11.91-19.86,1.15,1.92-9.66,14.28-1.43,5.15,2.45Zm-6.46-11.3L575.14,203l1.16-5.81Z"/><path class="cls-1" d="M595.68,200l-18.17-6.37,3.66-10.43L589.4,186l.54-1.53-8.24-2.89,3.67-10.45,18.16,6.37L599.86,188l-8.42-2.95-.54,1.53,8.42,3Z"/><path class="cls-1" d="M604.61,175.34l-17.24-8.56,9.12-18.38,6.5,3.22-2.18,1.11,6.43,3.19-.54-2.51,7.06,3.5Zm-3.9-22.57-7.93,4.07,8.14,4Zm6.55,3.22-6.15,5,8.15,4Z"/><path class="cls-1" d="M614.92,154.79l-16.08-10.58,6.14-9.33,16.08,10.58ZM622,144.06,605.9,133.48l1.73-2.64c.56-.86,1-1.55,1.4-2.06a10.53,10.53,0,0,1,1-1.25,6.84,6.84,0,0,1,.9-.77,5,5,0,0,1,1.94-.81,4.63,4.63,0,0,1,1.74,0,4.8,4.8,0,0,1,1.63.69,4.62,4.62,0,0,1,2.13,3.12,4.25,4.25,0,0,1,.1,1.08,12.74,12.74,0,0,1-.18,1.42,7.12,7.12,0,0,1,1.05-.72,3.82,3.82,0,0,1,.93-.33,5.11,5.11,0,0,1,4.3.84l3.7,2.42Z"/><path class="cls-1" d="M629.59,133,614.87,120.6l13.23-15.69,5.54,4.67-2.37.57,5.49,4.62.07-2.56,6,5.07Zm1.58-22.85-8.68,2.07,7,5.86Zm5.59,4.68-7.17,3.44,6.95,5.86Z"/><path class="cls-1" d="M646,99.21l-5.61-6.62L657.57,78l5.6,6.6-9.33-2.32,0,0,11.89,14-8.56,7.25-11.89-14,0,0Z"/><path class="cls-1" d="M669.45,69.66,680.3,85.83l-1.25.84a9.29,9.29,0,0,1-4.77,1.61A9.8,9.8,0,0,1,665.56,84a9.79,9.79,0,0,1-1.51-3.64,9,9,0,0,1,.05-3.77A9.74,9.74,0,0,1,665.72,73a11.64,11.64,0,0,1,3-2.88ZM681.69,84.9,670.84,68.73l.83-.55a10.76,10.76,0,0,1,3.72-1.62,10.39,10.39,0,0,1,3.88-.11,9.36,9.36,0,0,1,6.29,4.08,9.73,9.73,0,0,1,1.51,3.6,9.57,9.57,0,0,1,0,3.81,9.37,9.37,0,0,1-1.55,3.53,10.79,10.79,0,0,1-2.91,2.84Z"/><path class="cls-1" d="M706,70.58,694.25,54.71l9-4L712,61.91l.91,5.64Zm11.12-4.86L704.8,50.09l9-4L723.17,57l.94,5.63ZM722.68,54l-7.24-8.52,5.43-2.38Z"/><path class="cls-1" d="M728.42,48.71l.83-8.24,5.63-1.76,13.91,16L736.7,58.46l-5.87-6.91-1.71.54L734.94,59l-7.87,2.46,1.09-10.56,1.67-.52Z"/><path class="cls-1" d="M753.75,35.87l-.41-2,3.94-.82,1.08,5.21L765,41.76a5.56,5.56,0,0,1,3.25,3.76,4.63,4.63,0,0,1-.22,2.8,5.15,5.15,0,0,1-1.91,2.19,7.06,7.06,0,0,1-1.43.76,15,15,0,0,1-2,.58L761,51l.62,3-4,.83-1.27-6.1-4.61-2.26c-2.64-1.29-4.17-3-4.61-5.08a6,6,0,0,1-.08-2.05,4.17,4.17,0,0,1,.64-1.75,5,5,0,0,1,1.38-1.4,7.07,7.07,0,0,1,1.21-.68,13.54,13.54,0,0,1,1.75-.54Zm-3.93,18.64-1.64-7.91,6.72,3.3.71,3.41Zm10-17.35-.67-3.2,5.35-1.11,1.57,7.59Z"/><path class="cls-1" d="M770.82,50.21l-1.89-19.15,11-1.09.85,8.69,1.62-.16-.86-8.68,11-1.09,1.89,19.16L783.4,49l-.87-8.88-1.62.15.88,8.88Z"/><path class="cls-1" d="M809.38,47.69l.77-9.8,5.53,10.29Zm1-12.76.51-6.43,8.74.69,5.1,9.58-7.2,9.41Zm15.17,2.76,5.8-7.59,5.89.46-1.5,19.2-11.06-.87Z"/><path class="cls-1" d="M844,39.41l4.62-6.87,5.8,1.11,4.71,20.64-12.45-2.37-1.9-8.87L843,42.71l1.87,8.86L836.74,50l6-8.8,1.72.33Z"/><path class="cls-1" d="M860.18,43.84l.65-2.77a3.08,3.08,0,0,1-1.68-1.4,2.77,2.77,0,0,1-.28-2.07,3,3,0,0,1,.73-1.4,2.88,2.88,0,0,1,1.3-.77,3.08,3.08,0,0,1,3.48,1.37,3.33,3.33,0,0,1,.29,2.51,5.92,5.92,0,0,1-2.74,3.87,4.19,4.19,0,0,1-.75.4A6.18,6.18,0,0,1,860.18,43.84Z"/><path class="cls-1" d="M875,58.75l6.71-18,10.52,3.91-6.71,18.05ZM887,63.24l6.72-18,1.31.49a9.84,9.84,0,0,1,4.17,3,10,10,0,0,1,2.2,4.6,9,9,0,0,1-.39,4.94,9.38,9.38,0,0,1-2,3.18,9.63,9.63,0,0,1-3.1,2.16,10.26,10.26,0,0,1-3.73.83,9.39,9.39,0,0,1-3.66-.54Z"/><path class="cls-1" d="M907.33,50.76l10.08,4.76-8.22,17.4-10.08-4.76Z"/><path class="cls-1" d="M911.72,74l9.71-16.62L931.07,63l-9.7,16.62Zm11.09,6.48,9.71-16.63,2.72,1.59q1.34.78,2.13,1.29a10.6,10.6,0,0,1,1.31.94,5.85,5.85,0,0,1,.81.86,5,5,0,0,1,.92,1.89,4.43,4.43,0,0,1,.08,1.74,4.79,4.79,0,0,1-.6,1.66,4.59,4.59,0,0,1-3,2.3,3.9,3.9,0,0,1-1.06.16c-.29,0-.77,0-1.44-.1a6.47,6.47,0,0,1,.78,1,3.75,3.75,0,0,1,.39.92,5.14,5.14,0,0,1-.61,4.34l-2.23,3.81Z"/><path class="cls-1" d="M940.15,78.59l5.19-7,18.08,13.48-5.17,6.94.16-9.61,0,0-11,14.75-9-6.7,11-14.75,0,0Z"/><path class="cls-1" d="M962.48,100.16l3.13-13.28L974,94.75l-2.93,12.58-5.53,5.89-8.14-7.65Zm10.41,6.76,2.51-10.85,8.44,7.93Z"/><path class="cls-1" d="M997.75,138.65l-6.81,5.07-6-8.05a9.62,9.62,0,0,1-1.88-4.74,9.88,9.88,0,0,1,.68-5,9.37,9.37,0,0,1,6.59-5.62,9.05,9.05,0,0,1,3.81-.06,10,10,0,0,1,3.63,1.47,11.81,11.81,0,0,1,3,2.89l5.63,7.57-6.75,5L1001,125.4l-14.94,11.12Z"/><path class="cls-1" d="M1004.13,142.79l8.22-1,2.94,5.12-12.57,17-6.32-11,5.48-7.22-.9-1.56-5.49,7.19-4.11-7.14,10.54-1.23.87,1.51Z"/><path class="cls-1" d="M1003,164.86l7.45-3.14-2,7.24-3.21,1.35Zm19.05.27,1.86-.78,1.55,3.71-4.9,2.06-2.12,7.22a5.54,5.54,0,0,1-3.07,3.91,4.57,4.57,0,0,1-2.79.33,5.2,5.2,0,0,1-2.52-1.46,7.38,7.38,0,0,1-1-1.25,16.34,16.34,0,0,1-1-1.83l.48-1.88-2.83,1.19-1.58-3.75,5.74-2.41,1.33-5c.77-2.84,2.13-4.68,4.1-5.5a5.78,5.78,0,0,1,2-.48,4.34,4.34,0,0,1,1.84.29,5,5,0,0,1,1.64,1.09,7.18,7.18,0,0,1,.9,1.05,12.94,12.94,0,0,1,.87,1.62Zm-.09,6.24,3-1.27,2.12,5-7.15,3Z"/><path class="cls-1" d="M1011.25,184.51l18.62-4.9,2.81,10.68-8.44,2.23.42,1.57,8.44-2.23,2.82,10.71-18.62,4.9-2.82-10.73,8.63-2.27-.42-1.57-8.63,2.27Z"/><path class="cls-1" d="M1024.19,216.26a3,3,0,0,1-.55,2.23,2.79,2.79,0,0,1-1.94,1.14,2.83,2.83,0,0,1-2.18-.6,3,3,0,0,1-.57-4.19,2.84,2.84,0,0,1,3.44-1,2.89,2.89,0,0,1,1.21.94A3,3,0,0,1,1024.19,216.26Zm.85-.68,8.17-1.1a4.7,4.7,0,0,0,2-.63,5.58,5.58,0,0,0,.78-.63,10.25,10.25,0,0,0,.73-1,3.53,3.53,0,0,1,.74,1.87,5.51,5.51,0,0,1,0,1.51,8.27,8.27,0,0,1-.45,1.61,6.54,6.54,0,0,1-.83,1.41,5.68,5.68,0,0,1-1.15,1.2,6,6,0,0,1-1.44.82,7,7,0,0,1-1.64.43,5.51,5.51,0,0,1-3.32-.5,7.18,7.18,0,0,1-1.5-1,6.34,6.34,0,0,1-1.19-1.34,6.22,6.22,0,0,1-.71-1.88Q1025.16,216.15,1025,215.58Zm10.92-6.11a3.2,3.2,0,0,1-.06,1.24,3,3,0,0,1-.54,1.09,3.43,3.43,0,0,1-.87.79,3.08,3.08,0,0,1-4.61-2.3,3.05,3.05,0,0,1,.58-2.31,3,3,0,0,1,4.32-.57A3,3,0,0,1,1036,209.47Z"/><polygon class="cls-2" points="991.78 305.5 1006.47 297.77 1003.66 314.14 1015.55 325.73 999.12 328.11 991.78 343 984.43 328.11 968 325.73 979.89 314.14 977.08 297.77 991.78 305.5"/><polygon class="cls-2" points="1089.78 333.5 1104.47 325.77 1101.66 342.14 1113.55 353.73 1097.12 356.11 1089.78 371 1082.43 356.11 1066 353.73 1077.89 342.14 1075.08 325.77 1089.78 333.5"/><polygon class="cls-2" points="484.78 225.5 499.47 217.78 496.67 234.14 508.55 245.72 492.12 248.11 484.78 263 477.43 248.11 461 245.72 472.89 234.14 470.08 217.78 484.78 225.5"/></g></g></svg>
