<svg xmlns="http://www.w3.org/2000/svg" width="140" height="71.1" viewBox="0 0 140 71.1"><defs><style>.cls-1{fill:#718e79;}</style></defs><title>gode_point</title><g id="Layer_7" data-name="Layer 7"><g id="Layer_4" data-name="Layer 4"><path class="cls-1" d="M68.54,23.18V41.83h-6a4.74,4.74,0,0,1-4.1-2.36,4.66,4.66,0,0,1-.64-2.38,4,4,0,0,1,.44-1.79,4.84,4.84,0,0,1,1.19-1.56,4.78,4.78,0,0,1,.86-.63,6.71,6.71,0,0,1,1.24-.49v-.06a7.36,7.36,0,0,1-1.12-.38,4,4,0,0,1-.92-.57,4.35,4.35,0,0,1-1.64-3.54,4.46,4.46,0,0,1,.75-2.56,4.94,4.94,0,0,1,2.1-1.72,7.46,7.46,0,0,1,3.08-.61ZM70.1,41.83V23.18h5.15a6.28,6.28,0,0,1,2.9.66,4.86,4.86,0,0,1,2,1.82,5,5,0,0,1,.7,2.63,4.07,4.07,0,0,1-.56,2.09A4.38,4.38,0,0,1,78.69,32a4.46,4.46,0,0,1-.76.38,6.36,6.36,0,0,1-.94.24v.06a5,5,0,0,1,1.63.55,3.7,3.7,0,0,1,1.19,1,4.44,4.44,0,0,1,.82,1.35,4,4,0,0,1,.31,1.5,4.88,4.88,0,0,1-.61,2.41,4.66,4.66,0,0,1-4.07,2.37Z"/><path class="cls-1" d="M126.05,71.1H14A13.46,13.46,0,0,1,.5,57.65V13.45A13.46,13.46,0,0,1,14,0h112.1A13.46,13.46,0,0,1,139.5,13.45v44.2A13.46,13.46,0,0,1,126.05,71.1ZM14,11.53A2,2,0,0,0,12,13.45v44.2A2,2,0,0,0,14,59.57h112.1A2,2,0,0,0,128,57.65V13.45a2,2,0,0,0-1.92-1.92Z"/><circle class="cls-1" cx="12.35" cy="11.85" r="10.57"/><circle class="cls-1" cx="127.01" cy="11.85" r="10.57"/><circle class="cls-1" cx="128.29" cy="58.61" r="10.57"/><circle class="cls-1" cx="12.35" cy="58.61" r="10.57"/></g></g></svg>
