<svg xmlns="http://www.w3.org/2000/svg" width="220" height="111" viewBox="0 0 220 111"><defs><style>.cls-1{fill:#718e79;}</style></defs><title>grøn_seddel</title><g id="Layer_7" data-name="Layer 7"><g id="Layer_4" data-name="Layer 4"><path class="cls-1" d="M197.5,111H22.5a21,21,0,0,1-21-21V21a21,21,0,0,1,21-21h175a21,21,0,0,1,21,21V90A21,21,0,0,1,197.5,111ZM22.5,18a3,3,0,0,0-3,3V90a3,3,0,0,0,3,3h175a3,3,0,0,0,3-3V21a3,3,0,0,0-3-3Z"/><circle class="cls-1" cx="20" cy="18.5" r="16.5"/><circle class="cls-1" cx="199" cy="18.5" r="16.5"/><circle class="cls-1" cx="201" cy="91.5" r="16.5"/><circle class="cls-1" cx="20" cy="91.5" r="16.5"/><path class="cls-1" d="M91,74.85V57.26l10.22,10v7.57Zm13.2-38V32.47h6.94V44.05l10.1,10.34a13.24,13.24,0,0,1,4.17,9.46,12.1,12.1,0,0,1-1.35,5.88,9.46,9.46,0,0,1-4,3.82,11.35,11.35,0,0,1-2.68,1,23.1,23.1,0,0,1-3.56.37l-2.68-2.55v6.69h-7V65.5l-7-6.86q-6-5.89-6-12.86a15.64,15.64,0,0,1,.58-4.41,10,10,0,0,1,1.69-3.46,8.78,8.78,0,0,1,2.83-2.36,9.85,9.85,0,0,1,2.29-.93,18.65,18.65,0,0,1,3.15-.37Zm9.88,5.45V35.18h9.43V52.05Z"/></g></g></svg>
