<svg xmlns="http://www.w3.org/2000/svg" width="200" height="53.01" viewBox="0 0 200 53.01"><defs><style>.cls-1{fill:#5e2d37;}</style></defs><title>liv</title><g id="Layer_6" data-name="Layer 6"><path class="cls-1" d="M36.94,49.08,57.85,29.39,5,28.9,24.2,48.79A9.07,9.07,0,0,0,36.94,49.08Z"/><circle class="cls-1" cx="18.67" cy="17.63" r="17.63"/><circle class="cls-1" cx="44.63" cy="17.63" r="17.63"/><path class="cls-1" d="M104.93,50.54l20.91-19.69-52.9-.49L92.18,50.25A9.07,9.07,0,0,0,104.93,50.54Z"/><circle class="cls-1" cx="86.66" cy="19.09" r="17.63"/><circle class="cls-1" cx="112.61" cy="19.09" r="17.63"/><path class="cls-1" d="M173.64,50.54l20.91-19.69-52.89-.49L160.9,50.25A9.06,9.06,0,0,0,173.64,50.54Z"/><circle class="cls-1" cx="155.37" cy="19.09" r="17.63"/><circle class="cls-1" cx="181.33" cy="19.09" r="17.63"/></g></svg>
