<svg xmlns="http://www.w3.org/2000/svg" width="90" height="92.5" viewBox="0 0 90 92.5"><defs><style>.cls-1{fill:#eae16a;}.cls-2{fill:#7c2f29;}</style></defs><title>lukkeknap</title><g id="Layer_6" data-name="Layer 6"><path class="cls-1" d="M45,92.5A46.25,46.25,0,1,1,91.25,46.25,46.31,46.31,0,0,1,45,92.5ZM45,14A32.25,32.25,0,1,0,77.25,46.25,32.29,32.29,0,0,0,45,14Z"/><line class="cls-1" x1="33.25" y1="33" x2="59.25" y2="60"/><path class="cls-2" d="M59.25,67a7,7,0,0,1-5-2.14l-26-27a7,7,0,1,1,10.08-9.72l26,27a7,7,0,0,1-5,11.86Z"/><line class="cls-1" x1="30.25" y1="59" x2="58.25" y2="36"/><path class="cls-2" d="M30.25,66a7,7,0,0,1-4.44-12.41l28-23a7,7,0,0,1,8.88,10.82l-28,23A7,7,0,0,1,30.25,66Z"/></g></svg>
