<svg xmlns="http://www.w3.org/2000/svg" width="130" height="107.4" viewBox="0 0 130 107.4"><defs><style>.cls-1{fill:#eae16a;}</style></defs><title>lyd_til</title><g id="Layer_7" data-name="Layer 7"><g id="Layer_4" data-name="Layer 4"><path class="cls-1" d="M15.12,59.39l43.59,45.46a8.22,8.22,0,0,0,14.16-5.7V8.24A8.22,8.22,0,0,0,58.71,2.55L15.12,48A8.22,8.22,0,0,0,15.12,59.39Z"/><rect class="cls-1" x="12" y="18.75" width="37.46" height="68.68" rx="12" ry="12"/><path class="cls-1" d="M88.06,32.06c10.09,11.49,10.18,30.29.19,41.9a3.2,3.2,0,0,1-5,0,4.48,4.48,0,0,1,0-5.71c7.27-8.45,7.21-22.12-.13-30.47a4.49,4.49,0,0,1,0-5.72A3.2,3.2,0,0,1,88.06,32.06Z"/><path class="cls-1" d="M101.19,7.23c22.25,25.33,22.44,66.76.42,92.36a3.2,3.2,0,0,1-5,0,4.49,4.49,0,0,1,0-5.72c19.3-22.42,19.14-58.73-.36-80.93a4.48,4.48,0,0,1,0-5.71A3.2,3.2,0,0,1,101.19,7.23Z"/></g></g></svg>
