<svg xmlns="http://www.w3.org/2000/svg" width="130" height="123.27" viewBox="0 0 130 123.27"><defs><style>.cls-1{fill:#eae16a;}.cls-2{fill:#18161e;}</style></defs><title>lyd_fra</title><g id="Layer_7" data-name="Layer 7"><g id="Layer_4" data-name="Layer 4"><path class="cls-1" d="M21.75,75l43.59,45.45a8.23,8.23,0,0,0,14.17-5.69V23.82a8.23,8.23,0,0,0-14.17-5.7L21.75,63.58A8.23,8.23,0,0,0,21.75,75Z"/><rect class="cls-1" x="18.64" y="34.32" width="37.46" height="68.68" rx="12" ry="12"/><path class="cls-1" d="M94.69,47.64c10.1,11.49,10.18,30.28.19,41.89a3.19,3.19,0,0,1-5,0,4.48,4.48,0,0,1,0-5.71c7.26-8.44,7.2-22.11-.14-30.47a4.47,4.47,0,0,1,0-5.71A3.19,3.19,0,0,1,94.69,47.64Z"/><path class="cls-1" d="M107.83,22.8c22.25,25.34,22.43,66.77.41,92.36a3.2,3.2,0,0,1-5,0,4.48,4.48,0,0,1,0-5.71c19.3-22.43,19.13-58.74-.36-80.93a4.49,4.49,0,0,1,0-5.72A3.2,3.2,0,0,1,107.83,22.8Z"/><rect class="cls-2" x="-24.41" y="56.81" width="178.83" height="9.65" rx="4.82" ry="4.82" transform="translate(154.55 63.64) rotate(137.81)"/></g></g></svg>
