<svg xmlns="http://www.w3.org/2000/svg" width="140" height="135.6" viewBox="0 0 140 135.6"><defs><style>.cls-1{fill:#7f5e32;}.cls-2{fill:#6d4f2c;}.cls-3{fill:#262625;}.cls-4{fill:#191817;}.cls-5{fill:#b28e5f;}.cls-6{fill:#161f3a;}.cls-7{fill:#c1a687;}.cls-8{fill:#261a0f;}.cls-9{fill:#5e3819;}</style></defs><title>mand_bagfra</title><g id="Layer_7" data-name="Layer 7"><g id="Layer_4" data-name="Layer 4"><path class="cls-1" d="M107.25,94c0,9,10.49,5.79,18.09,5.79s15.91-3.31,15.91-12.3-9.05-29.66-16.64-29.66S107.25,85,107.25,94Z"/><path class="cls-2" d="M127.07,58.53c2.48,2.15,3.73,5.38,4.44,8.82A113.3,113.3,0,0,1,134,82.84c.31,5.14-1.83,12-5.71,16.8,6.64-.78,12.95-4.3,12.95-12.13C141.25,79.48,134,62.13,127.07,58.53Z"/><path class="cls-3" d="M112.72,87.14l1.38-6.65,3.84,4.75-.59,2.86ZM121.66,74l.35-1.66,3.14.65-.91,4.38L128,82.24a4.74,4.74,0,0,1,1.15,4,4,4,0,0,1-1.07,2.1A4.2,4.2,0,0,1,126,89.37a5.74,5.74,0,0,1-1.29.12A12.33,12.33,0,0,1,123,89.3l-1-1.22-.52,2.53L118.33,90l1.06-5.13-2.64-3.24q-2.27-2.79-1.72-5.43a5.33,5.33,0,0,1,.61-1.61,3.63,3.63,0,0,1,1-1.14,3.9,3.9,0,0,1,1.47-.63,5,5,0,0,1,1.11-.14,9.45,9.45,0,0,1,1.45.15Zm4,3,.55-2.69,4.27.88-1.32,6.38Z"/><path class="cls-1" d="M124.67,43.36l-.59.28a4.53,4.53,0,0,1-4,2.06h-.26l-1,.48-.78.38a4.52,4.52,0,0,1-3.47,1.67l-1.9.92a.93.93,0,0,0-.11,1.61l7.21,4.83a.94.94,0,0,0,.81.12,14.23,14.23,0,0,1,1.56-.38,11.47,11.47,0,0,0,1.62-.78,1.58,1.58,0,0,1,.71-.16l1.51-10A.93.93,0,0,0,124.67,43.36Z"/><path class="cls-4" d="M88.53,64.86q-3,0-6-.16a2.5,2.5,0,0,1-2.37-2.62,2.53,2.53,0,0,1,2.63-2.37A104.84,104.84,0,0,0,110,57.65a72.11,72.11,0,0,0,14.61-4.51,2.5,2.5,0,1,1,2.16,4.51,76.83,76.83,0,0,1-15.74,4.89A109.19,109.19,0,0,1,88.53,64.86Z"/><path class="cls-4" d="M1.25,102.44H1.11A2.5,2.5,0,0,1-1.25,99.8,76.6,76.6,0,0,1,2,83.65,109.58,109.58,0,0,1,13.85,57.59a2.5,2.5,0,1,1,4.25,2.64A105.05,105.05,0,0,0,6.82,85.09a71.34,71.34,0,0,0-3.07,15A2.51,2.51,0,0,1,1.25,102.44Z"/><rect class="cls-4" x="57" y="93.62" width="8.42" height="39.97" rx="3.03" ry="3.03"/><rect class="cls-4" x="35.96" y="93.62" width="8.42" height="39.97" rx="3.03" ry="3.03"/><path class="cls-5" d="M11.77,71.53c0,30.21,15.79,30.51,37.87,30.51s42.08-.3,42.08-30.51S73.82,0,51.74,0,11.77,41.32,11.77,71.53Z"/><path class="cls-6" d="M16.12,43.14a103.86,103.86,0,0,0-4.35,28.39c0,30.21,15.79,30.51,37.87,30.51s42.08-.3,42.08-30.51A100.52,100.52,0,0,0,88.66,48C64.56,53,39.63,50.94,16.12,43.14Z"/><ellipse class="cls-7" cx="42.8" cy="7.36" rx="5.79" ry="2.1" transform="translate(3.11 24.99) rotate(-33.7)"/><path class="cls-8" d="M84.75,127.53,65.27,122.6c.35,2.38-1,5.07-4.12,5.07A4,4,0,0,1,57,124s0,0,0,0l-.75,6a3.09,3.09,0,0,0,3.06,3.46H84A3.08,3.08,0,0,0,84.75,127.53Z"/><ellipse class="cls-9" cx="84.67" cy="129.35" rx="1.05" ry="1.72" transform="translate(-69.9 132.09) rotate(-57.8)"/><path class="cls-8" d="M16.57,129.53l19.49-4.93c-.35,2.38,1,5.07,4.12,5.07A4,4,0,0,0,44.29,126a.07.07,0,0,1,0,0l.75,6a3.07,3.07,0,0,1-3,3.46H17.33A3.08,3.08,0,0,1,16.57,129.53Z"/><ellipse class="cls-9" cx="16.65" cy="131.35" rx="1.72" ry="1.05" transform="translate(-67.42 29.07) rotate(-32.2)"/></g></g></svg>
