<svg xmlns="http://www.w3.org/2000/svg" width="290" height="305.42" viewBox="0 0 290 305.42"><defs><style>.cls-1{fill:#914f2a;}.cls-2{fill:#191817;}.cls-3{fill:#b28e5f;}.cls-4{fill:#161f3a;}.cls-5{fill:#c1a687;}.cls-6{fill:#261a0f;}.cls-7{fill:#5e3819;}.cls-8{fill:#f9f9f9;}.cls-9{fill:#282626;}.cls-10{fill:#070707;}.cls-11{fill:#020202;}</style></defs><title>mand_forfra</title><g id="Layer_6" data-name="Layer 6"><path class="cls-1" d="M138.8,117l-10.25-3.29a2.85,2.85,0,0,1-1.77-3.8l.65-1.58a2.85,2.85,0,0,1,3.93-1.46l9.6,4.86A2.86,2.86,0,0,1,138.8,117Z"/></g><g id="Layer_7" data-name="Layer 7"><path class="cls-2" d="M7.2,243.79H6.88a5.67,5.67,0,0,1-5.35-6c0-.6.89-14.92,7.44-36.65A249.15,249.15,0,0,1,35.79,142a5.67,5.67,0,0,1,9.64,6,237.63,237.63,0,0,0-25.59,56.42c-6.17,20.44-7,33.87-7,34A5.67,5.67,0,0,1,7.2,243.79Z"/><path class="cls-2" d="M198.44,167.61q-6.8,0-13.62-.36a5.67,5.67,0,1,1,.59-11.33,238.35,238.35,0,0,0,61.78-4.69c20.89-4.43,33.05-10.18,33.17-10.23a5.67,5.67,0,1,1,4.9,10.23c-.55.26-13.51,6.39-35.72,11.1A246.75,246.75,0,0,1,198.44,167.61Z"/><rect class="cls-2" x="133.7" y="212.45" width="19.1" height="90.71" rx="3.03" ry="3.03"/><rect class="cls-2" x="85.96" y="212.45" width="19.1" height="90.71" rx="3.03" ry="3.03"/><path class="cls-3" d="M31.06,162.32c0,68.55,35.84,69.22,85.94,69.22s95.48-.67,95.48-69.22S171.87,0,121.77,0,31.06,93.77,31.06,162.32Z"/><path class="cls-4" d="M29.88,162.34c0,68.53,36.52,69.2,87.57,69.2s97.3-.67,97.3-69.2S121.17,158,121.17,158,29.88,93.81,29.88,162.34Z"/><ellipse class="cls-5" cx="101.48" cy="16.71" rx="13.13" ry="4.77" transform="translate(7.78 59.12) rotate(-33.7)"/><path class="cls-6" d="M42,291.65l44.22-11.19c-.81,5.4,2.3,11.5,9.33,11.5,5.63,0,8.74-3.9,9.34-8.23l0,.11,1.7,13.73a7,7,0,0,1-6.93,7.85h-56C35.45,305.42,34,293.67,42,291.65Z"/><ellipse class="cls-7" cx="42.14" cy="295.78" rx="3.91" ry="2.38" transform="translate(-151.11 67.94) rotate(-32.2)"/><path class="cls-6" d="M196.67,291.65l-44.22-11.19c.81,5.4-2.3,11.5-9.33,11.5-5.63,0-8.74-3.9-9.34-8.23a.45.45,0,0,0,0,.11l-1.7,13.73a7,7,0,0,0,6.92,7.85h56C203.18,305.42,204.64,293.67,196.67,291.65Z"/><ellipse class="cls-7" cx="196.49" cy="295.78" rx="2.38" ry="3.91" transform="translate(-158.5 304.47) rotate(-57.8)"/><circle class="cls-8" cx="104.76" cy="76.24" r="17.02"/><path class="cls-9" d="M104.76,96.66a20.42,20.42,0,1,1,20.43-20.42A20.44,20.44,0,0,1,104.76,96.66Zm0-34a13.62,13.62,0,1,0,13.62,13.61A13.62,13.62,0,0,0,104.76,62.63Z"/><circle class="cls-8" cx="143.34" cy="76.24" r="17.02"/><path class="cls-9" d="M143.34,96.66a20.42,20.42,0,1,1,20.42-20.42A20.44,20.44,0,0,1,143.34,96.66Zm0-34A13.62,13.62,0,1,0,157,76.24,13.63,13.63,0,0,0,143.34,62.63Z"/><circle class="cls-10" cx="139.94" cy="72.84" r="4.54"/><circle class="cls-10" cx="100.23" cy="71.7" r="4.54"/><rect class="cls-11" x="85.96" y="45.79" width="34.25" height="6.81" rx="1.5" ry="1.5" transform="translate(15.18 -23.74) rotate(14.17)"/><rect class="cls-11" x="125.57" y="45.41" width="36.45" height="6.81" rx="1.5" ry="1.5" transform="translate(-7.47 35.43) rotate(-13.69)"/><path class="cls-11" d="M108.29,134.14c-21.44,0-32.81-18-32.93-18.24a.7.7,0,0,1,.38-1,1,1,0,0,1,1.18.32c.12.18,11.49,18.14,32.6,17.41a.76.76,0,1,1,.07,1.49Z"/><path class="cls-11" d="M108.29,134.64c-21.66,0-33.24-18.29-33.35-18.47a1.14,1.14,0,0,1-.12-1,1.28,1.28,0,0,1,.72-.78,1.47,1.47,0,0,1,1.81.51c.11.18,11.35,17.91,32.15,17.18a1.34,1.34,0,0,1,1,.33,1.2,1.2,0,0,1,.43.86,1.14,1.14,0,0,1-.31.85,1.43,1.43,0,0,1-1,.44ZM76.14,115.32a.51.51,0,0,0-.2,0,.3.3,0,0,0-.17.16.13.13,0,0,0,0,.12c.11.18,11.9,18.72,33.78,18a.43.43,0,0,0,.31-.13.17.17,0,0,0,.06-.12.27.27,0,0,0-.09-.15.35.35,0,0,0-.28-.09c-21.51.72-33-17.47-33.07-17.65A.41.41,0,0,0,76.14,115.32Z"/></g></svg>
