<svg xmlns="http://www.w3.org/2000/svg" width="90" height="87.69" viewBox="0 0 90 87.69"><defs><style>.cls-1{fill:#e2c034;}.cls-2{fill:#4a4a4c;}</style></defs><title>play</title><g id="Layer_2" data-name="Layer 2"><path class="cls-1" d="M86.65,41.13,5.83,4.27A3,3,0,0,0,1.61,7V80.7a3,3,0,0,0,4.22,2.72L86.65,46.56A3,3,0,0,0,86.65,41.13Z"/><path class="cls-2" d="M4.59,87.69a7,7,0,0,1-7-7V7A7,7,0,0,1,7.49.63L88.31,37.49a7,7,0,0,1,0,12.71L7.49,87.06A7.05,7.05,0,0,1,4.59,87.69Zm1-79.12V79.12L83,43.84ZM85,44.76h0Z"/></g></svg>
