<svg xmlns="http://www.w3.org/2000/svg" width="110" height="105.93" viewBox="0 0 110 105.93"><defs><style>.cls-1,.cls-2,.cls-3,.cls-4{fill:#e8cd5d;}.cls-2{opacity:0.78;}.cls-3{opacity:0.52;}.cls-4{opacity:0.26;}.cls-5{fill:#4a4a4c;}</style></defs><title>settings</title><g id="Layer_7" data-name="Layer 7"><g id="Layer_4" data-name="Layer 4"><polygon class="cls-1" points="55.97 27.79 78.39 16 74.11 40.96 92.24 58.64 67.18 62.29 55.97 85 44.76 62.29 19.69 58.64 37.83 40.96 33.55 16 55.97 27.79"/><polygon class="cls-2" points="56.07 24.84 82.03 11 77.07 40.31 98.07 61.06 69.05 65.34 56.07 92 43.09 65.34 14.07 61.06 35.07 40.31 30.12 11 56.07 24.84"/><polygon class="cls-3" points="55.57 21.44 85.55 5.46 79.82 39.31 104.07 63.27 70.56 68.21 55.57 99 40.59 68.21 7.07 63.27 31.32 39.31 25.6 5.46 55.57 21.44"/><polygon class="cls-4" points="55 18.09 88.95 0 82.46 38.33 109.93 65.47 71.97 71.06 55 105.93 38.03 71.06 0.07 65.47 27.54 38.33 21.05 0 55 18.09"/><path class="cls-5" d="M56.72,59.54a10.95,10.95,0,1,1,11-10.95A11,11,0,0,1,56.72,59.54Zm0-16.06a5.11,5.11,0,1,0,5.11,5.11A5.11,5.11,0,0,0,56.72,43.48Z"/><circle class="cls-5" cx="46.79" cy="40.12" r="3.5"/><circle class="cls-5" cx="66.65" cy="40.42" r="3.5"/><circle class="cls-5" cx="56.72" cy="35.74" r="3.5"/><circle class="cls-5" cx="47.08" cy="57.06" r="3.5"/><circle class="cls-5" cx="56.72" cy="61.44" r="3.5"/><circle class="cls-5" cx="66.36" cy="56.77" r="3.5"/><circle class="cls-5" cx="69.57" cy="48.3" r="3.5"/><circle class="cls-5" cx="43.58" cy="48.59" r="3.5"/></g></g></svg>
