<svg xmlns="http://www.w3.org/2000/svg" width="752" height="447" viewBox="0 0 752 447"><defs><style>.cls-1{fill:#161f3a;}.cls-2{fill:#eae16a;}.cls-3{fill:#7c2f29;}.cls-4{opacity:0.41;}.cls-5{fill:#080821;}.cls-6{fill:#fcfcfc;}</style></defs><title>setting_eksempel</title><g id="Layer_7" data-name="Layer 7"><g id="Layer_4" data-name="Layer 4"><rect class="cls-1" width="752" height="447" rx="120.99" ry="120.99"/><path class="cls-2" d="M650.75,118.5A46.25,46.25,0,1,1,697,72.25,46.31,46.31,0,0,1,650.75,118.5Zm0-78.5A32.25,32.25,0,1,0,683,72.25,32.29,32.29,0,0,0,650.75,40Z"/><line class="cls-2" x1="639" y1="59" x2="665" y2="86"/><path class="cls-3" d="M665,93a7,7,0,0,1-5-2.14l-26-27A7,7,0,0,1,644,54.14l26,27A7,7,0,0,1,665,93Z"/><line class="cls-2" x1="636" y1="85" x2="664" y2="62"/><path class="cls-3" d="M636,92a7,7,0,0,1-4.44-12.41l28-23a7,7,0,0,1,8.88,10.82l-28,23A7,7,0,0,1,636,92Z"/><g class="cls-4"><rect class="cls-5" x="260" y="145" width="338" height="162" rx="49.74" ry="49.74"/></g><rect class="cls-2" x="253" y="152" width="338" height="162" rx="49.74" ry="49.74"/><path class="cls-3" d="M289.76,219.41l19.17,15.71a15.52,15.52,0,0,1,3.9,4.28,9.73,9.73,0,0,1,1.2,4.81,10.13,10.13,0,0,1-1.81,5.89,10.73,10.73,0,0,1-4.92,3.9,9.2,9.2,0,0,1-1.48.5,14.36,14.36,0,0,1-1.72.29c-.65.06-1.43.11-2.35.14l-5.22-3.65c-1-.73-2.24-1.6-3.65-2.63-2.28-1.68-4.48-3.42-6.62-5.24a48.25,48.25,0,0,1-5-4.6,16.45,16.45,0,0,1-2.58-3.37,11.39,11.39,0,0,1-1-2.63,10.58,10.58,0,0,1-.37-2.68,10.2,10.2,0,0,1,1.77-6,10.71,10.71,0,0,1,5-3.85,12.33,12.33,0,0,1,2.47-.68A25,25,0,0,1,289.76,219.41Zm-12.15,35.52V240l19.06,14.94Zm34.33-21.26-17.63-14.48h17.63Z"/><path class="cls-3" d="M317.29,262.07V228.71h14.26v33.36Zm17.32-7V228.71h.84a15.07,15.07,0,0,1,7.16,1.74,13.11,13.11,0,0,1,5.15,4.78,12.61,12.61,0,0,1,1.85,6.71,13.76,13.76,0,0,1-1,5.28,12.26,12.26,0,0,1-7.14,6.92,14.92,14.92,0,0,1-5.48,1,1.32,1.32,0,0,0-.3,0,1.87,1.87,0,0,1-.34,0Z"/><path class="cls-3" d="M360.22,219a11.84,11.84,0,0,1,5.53,1.09,3.26,3.26,0,0,1,2.09,2.9,2.56,2.56,0,0,1-.93,1.92,6.32,6.32,0,0,1-2.56,1.34,12.45,12.45,0,0,1-3.7.5,11,11,0,0,1-5.17-1,3.06,3.06,0,0,1-.11-5.65A9.71,9.71,0,0,1,360.22,219Zm-6.59,36V228.71H368v26.22Z"/><path class="cls-3" d="M373.39,254.93V219.41h14.35v35.52Z"/><path class="cls-3" d="M423.05,219a11.84,11.84,0,0,1,5.53,1.09,3.26,3.26,0,0,1,2.09,2.9,2.56,2.56,0,0,1-.93,1.92,6.32,6.32,0,0,1-2.56,1.34,12.45,12.45,0,0,1-3.7.5,11,11,0,0,1-5.17-1,3.05,3.05,0,0,1-.11-5.65A9.71,9.71,0,0,1,423.05,219Zm-6.6,36V228.71H430.8v26.22Z"/><path class="cls-3" d="M449.64,228.43V255h-1.57a12.89,12.89,0,0,1-6.66-1.81,13.27,13.27,0,0,1-4.85-4.85,12.65,12.65,0,0,1-1.81-6.62,13.58,13.58,0,0,1,1-5.28,12.2,12.2,0,0,1,2.85-4.24,13.06,13.06,0,0,1,4.38-2.76,14.69,14.69,0,0,1,5.48-1Zm3,33.59V228.48H467V250a22,22,0,0,1-.34,4.08,10.64,10.64,0,0,1-1.06,3.08,7.57,7.57,0,0,1-1.91,2.25,10.8,10.8,0,0,1-2.85,1.58,18.7,18.7,0,0,1-6.51,1Z"/><path class="cls-3" d="M500.23,245.09l1.38.64a19.73,19.73,0,0,1-1.18,2.78,9.88,9.88,0,0,1-1.5,2,11.16,11.16,0,0,1-4.28,3.13,20.46,20.46,0,0,1-8,1.43,24.55,24.55,0,0,1-4.9-.45,14.89,14.89,0,0,1-3.9-1.34A11.6,11.6,0,0,1,474.7,251a13.07,13.07,0,0,1-2.76-4.26,13.3,13.3,0,0,1-.95-5.07,13.11,13.11,0,0,1,4-9.52,13.43,13.43,0,0,1,4.35-2.86,14.35,14.35,0,0,1,5.3-1h.55V253.5c1.17.09,2,.14,2.51.14a12.7,12.7,0,0,0,9.14-3.27,11.77,11.77,0,0,0,1.81-2.1A23.78,23.78,0,0,0,500.23,245.09Zm2-3.58H488.21V228.23a32.92,32.92,0,0,1,3.31.38,9.89,9.89,0,0,1,2.43.8,13,13,0,0,1,4.51,3,13.74,13.74,0,0,1,2.33,3.18,10.66,10.66,0,0,1,1.25,3.46C502.14,239.71,502.22,240.53,502.27,241.51Z"/><path class="cls-3" d="M506.07,254.93V228.71h14.26v26.22Zm17.27,0V228.71h3.95a13.77,13.77,0,0,1,5.55,1.06,8.41,8.41,0,0,1,3.67,3.08,8.49,8.49,0,0,1,1.27,4.63v17.45Z"/><path class="cls-3" d="M548.14,242.1h-3.06l-2.56-10c-.44-1.8-.8-3.42-1.09-4.87a18.91,18.91,0,0,1-.47-3,5,5,0,0,1,1.6-3.72,5.48,5.48,0,0,1,3.93-1.52,5.65,5.65,0,0,1,2.78.7,5,5,0,0,1,2,2,5.79,5.79,0,0,1,.7,2.85,14.5,14.5,0,0,1-.55,3.24l0,.27-.05.3Zm-1.45,1.79a5.66,5.66,0,0,1,4.06,1.61,5.25,5.25,0,0,1,1.65,3.94,5.1,5.1,0,0,1-1.65,3.83,5.62,5.62,0,0,1-4.06,1.61,5.35,5.35,0,0,1-2.72-.74,5.64,5.64,0,0,1-2-2,5.11,5.11,0,0,1-.77-2.72,5.22,5.22,0,0,1,1.63-3.9A5.41,5.41,0,0,1,546.69,243.89Z"/><ellipse class="cls-6" cx="283" cy="182" rx="25" ry="12" transform="translate(-51.2 221) rotate(-39.4)"/><rect class="cls-2" x="116" y="86" width="90" height="23" rx="7.49" ry="7.49"/><rect class="cls-2" x="183" y="98" width="23" height="68"/><rect class="cls-2" x="116" y="98" width="23" height="68"/><rect class="cls-2" x="96" y="142" width="43" height="43" rx="12" ry="12"/><rect class="cls-2" x="163" y="142" width="43" height="43" rx="12" ry="12"/><path class="cls-2" d="M103.12,286.15l43.59,45.46a8.23,8.23,0,0,0,14.16-5.7V235a8.22,8.22,0,0,0-14.16-5.69l-43.59,45.45A8.23,8.23,0,0,0,103.12,286.15Z"/><rect class="cls-2" x="100" y="245.51" width="37.46" height="68.68" rx="12" ry="12"/><path class="cls-2" d="M176.06,258.82c10.09,11.49,10.18,30.29.19,41.9a3.21,3.21,0,0,1-5,0,4.49,4.49,0,0,1,0-5.72c7.27-8.44,7.21-22.11-.13-30.47a4.48,4.48,0,0,1,0-5.71A3.2,3.2,0,0,1,176.06,258.82Z"/><path class="cls-2" d="M189.19,234c22.25,25.33,22.44,66.76.42,92.36a3.21,3.21,0,0,1-5,0,4.49,4.49,0,0,1,0-5.72c19.3-22.43,19.14-58.73-.36-80.93a4.48,4.48,0,0,1,0-5.71A3.2,3.2,0,0,1,189.19,234Z"/></g></g></svg>
