<svg xmlns="http://www.w3.org/2000/svg" width="350" height="169" viewBox="0 0 350 169"><defs><style>.cls-1{opacity:0.41;}.cls-2{fill:#080821;}.cls-3{fill:#eae16a;}.cls-4{fill:#7c2f29;}.cls-5{fill:#fcfcfc;}</style></defs><title>spil_igen</title><g id="Layer_6" data-name="Layer 6"><g class="cls-1"><rect class="cls-2" x="9.5" width="338" height="162" rx="49.74" ry="49.74"/></g><rect class="cls-3" x="2.5" y="7" width="338" height="162" rx="49.74" ry="49.74"/><path class="cls-4" d="M39.26,74.41,58.43,90.12a15.52,15.52,0,0,1,3.9,4.28,9.73,9.73,0,0,1,1.2,4.81,10.13,10.13,0,0,1-1.81,5.89A10.73,10.73,0,0,1,56.8,109a9.2,9.2,0,0,1-1.48.5,14.36,14.36,0,0,1-1.72.29c-.65.06-1.43.11-2.35.14L46,106.28c-1-.73-2.24-1.6-3.65-2.63-2.28-1.68-4.48-3.42-6.62-5.24a48.25,48.25,0,0,1-5-4.6,16.45,16.45,0,0,1-2.58-3.37,11.39,11.39,0,0,1-.95-2.63,10.58,10.58,0,0,1-.37-2.68,10.2,10.2,0,0,1,1.77-6,10.71,10.71,0,0,1,5-3.85,12.33,12.33,0,0,1,2.47-.68A25,25,0,0,1,39.26,74.41ZM27.11,109.93V95l19.06,14.94ZM61.44,88.67,43.81,74.19H61.44Z"/><path class="cls-4" d="M66.79,117.07V83.71H81.05v33.36Zm17.32-7V83.71H85a15.07,15.07,0,0,1,7.16,1.74,13.11,13.11,0,0,1,5.15,4.78,12.61,12.61,0,0,1,1.85,6.71,13.76,13.76,0,0,1-1,5.28A12.26,12.26,0,0,1,91,109.14a14.92,14.92,0,0,1-5.48,1,1.32,1.32,0,0,0-.3,0,1.87,1.87,0,0,1-.34,0Z"/><path class="cls-4" d="M109.72,74a11.84,11.84,0,0,1,5.53,1.09,3.26,3.26,0,0,1,2.09,2.9,2.56,2.56,0,0,1-.93,1.92,6.32,6.32,0,0,1-2.56,1.34,12.45,12.45,0,0,1-3.7.5,11,11,0,0,1-5.17-1,3.06,3.06,0,0,1-.11-5.65A9.71,9.71,0,0,1,109.72,74Zm-6.59,36V83.71h14.34v26.22Z"/><path class="cls-4" d="M122.89,109.93V74.41h14.35v35.52Z"/><path class="cls-4" d="M172.55,74a11.84,11.84,0,0,1,5.53,1.09,3.26,3.26,0,0,1,2.09,2.9,2.56,2.56,0,0,1-.93,1.92,6.32,6.32,0,0,1-2.56,1.34,12.45,12.45,0,0,1-3.7.5,11,11,0,0,1-5.17-1A3.05,3.05,0,0,1,167.7,75,9.71,9.71,0,0,1,172.55,74Zm-6.6,36V83.71H180.3v26.22Z"/><path class="cls-4" d="M199.14,83.43V110h-1.57a12.89,12.89,0,0,1-6.66-1.81,13.27,13.27,0,0,1-4.85-4.85,12.65,12.65,0,0,1-1.81-6.62,13.58,13.58,0,0,1,1-5.28,12.2,12.2,0,0,1,2.85-4.24,13.06,13.06,0,0,1,4.38-2.76,14.69,14.69,0,0,1,5.48-1Zm3,33.59V83.48h14.3V105a22,22,0,0,1-.34,4.08,10.64,10.64,0,0,1-1.06,3.08,7.57,7.57,0,0,1-1.91,2.25,10.8,10.8,0,0,1-2.85,1.58,18.7,18.7,0,0,1-6.51,1Z"/><path class="cls-4" d="M249.73,100.09l1.38.64a19.73,19.73,0,0,1-1.18,2.78,9.88,9.88,0,0,1-1.5,2,11.16,11.16,0,0,1-4.28,3.13,20.46,20.46,0,0,1-8,1.43,24.55,24.55,0,0,1-4.9-.45,14.89,14.89,0,0,1-3.9-1.34A11.6,11.6,0,0,1,224.2,106a13.07,13.07,0,0,1-2.76-4.26,13.3,13.3,0,0,1-.95-5.07,13.11,13.11,0,0,1,4-9.52,13.43,13.43,0,0,1,4.35-2.86,14.35,14.35,0,0,1,5.3-1h.55V108.5c1.17.09,2,.14,2.51.14a12.7,12.7,0,0,0,9.14-3.27,11.77,11.77,0,0,0,1.81-2.1A23.78,23.78,0,0,0,249.73,100.09Zm2-3.58H237.71V83.23a32.92,32.92,0,0,1,3.31.38,9.89,9.89,0,0,1,2.43.8,13,13,0,0,1,4.51,3,13.74,13.74,0,0,1,2.33,3.18,10.66,10.66,0,0,1,1.25,3.46C251.64,94.71,251.72,95.53,251.77,96.51Z"/><path class="cls-4" d="M255.57,109.93V83.71h14.26v26.22Zm17.27,0V83.71h4a13.77,13.77,0,0,1,5.55,1.06A8.41,8.41,0,0,1,286,87.85a8.49,8.49,0,0,1,1.27,4.63v17.45Z"/><path class="cls-4" d="M297.64,97.1h-3.06l-2.56-10c-.44-1.8-.8-3.42-1.09-4.87a18.91,18.91,0,0,1-.47-3,5,5,0,0,1,1.6-3.72A5.48,5.48,0,0,1,296,74a5.65,5.65,0,0,1,2.78.7,5,5,0,0,1,2,2,5.79,5.79,0,0,1,.7,2.85,14.5,14.5,0,0,1-.55,3.24l0,.27-.05.3Zm-1.45,1.79a5.66,5.66,0,0,1,4.06,1.61,5.25,5.25,0,0,1,1.65,3.94,5.1,5.1,0,0,1-1.65,3.83,5.62,5.62,0,0,1-4.06,1.61,5.35,5.35,0,0,1-2.72-.74,5.64,5.64,0,0,1-2-2,5.11,5.11,0,0,1-.77-2.72,5.22,5.22,0,0,1,1.63-3.9A5.41,5.41,0,0,1,296.19,98.89Z"/><ellipse class="cls-5" cx="32.5" cy="37" rx="25" ry="12" transform="translate(-16.1 29.04) rotate(-39.4)"/></g></svg>
