<svg xmlns="http://www.w3.org/2000/svg" xmlns:xlink="http://www.w3.org/1999/xlink" width="1600" height="900" viewBox="0 0 1600 900"><defs><style>.cls-1{fill:none;}.cls-2{clip-path:url(#clip-path);}.cls-3{fill:#1d1d1b;}.cls-4{fill:#1e1e1c;}.cls-5{fill:#1f1f1d;}.cls-6{fill:#20201e;}.cls-7{fill:#21211f;}.cls-8{fill:#222220;}.cls-9{fill:#232321;}.cls-10{fill:#242422;}.cls-11{fill:#252523;}.cls-12{fill:#262624;}.cls-13{fill:#272725;}.cls-14{fill:#282826;}.cls-15{fill:#292927;}.cls-16{fill:#2a2a28;}.cls-17{fill:#2b2b29;}.cls-18{fill:#2c2c2a;}.cls-19{fill:#2e2e2c;}.cls-20{fill:#2f2f2d;}.cls-21{fill:#30302e;}.cls-22{fill:#31312f;}.cls-23{fill:#323230;}.cls-24{fill:#333331;}.cls-25{fill:#343432;}.cls-26{fill:#353533;}.cls-27{fill:#363634;}.cls-28{fill:#373735;}.cls-29{fill:#383836;}.cls-30{fill:#393937;}.cls-31{fill:#3a3a38;}.cls-32{fill:#3b3b39;}.cls-33{fill:#3c3c3a;}.cls-34{fill:#3d3d3b;}.cls-35{opacity:0.26;}.cls-36{fill:#e8dd80;}.cls-37{opacity:0.52;}.cls-38{opacity:0.76;}.cls-39{fill:#303030;}.cls-40{fill:#f2e353;}.cls-41{fill:#4f4f4e;}.cls-42{fill:#fcfcfc;}.cls-43{fill:#8e8d88;}.cls-44{fill:#494947;}.cls-45{fill:#282828;}.cls-46{fill:#914f2a;}.cls-47{fill:#c6c6c4;}.cls-48{fill:#1e1e1e;}.cls-49{fill:#606060;}.cls-50{fill:#447eb7;}.cls-51{fill:#8c92b5;}.cls-52{fill:#919bc6;}.cls-53{fill:#5e2d37;}.cls-54{fill:#718e79;}.cls-55{fill:#020202;}.cls-56{fill:#0a0503;}.cls-57{fill:#191817;}.cls-58{fill:#b28e5f;}.cls-59{fill:#161f3a;}.cls-60{fill:#c1a687;}.cls-61{fill:#261a0f;}.cls-62{fill:#5e3819;}.cls-63{fill:#f9f9f9;}.cls-64{fill:#282626;}.cls-65{fill:#070707;}</style><clipPath id="clip-path"><rect class="cls-1" x="-4" width="1600" height="900"/></clipPath></defs><title>spilskaerm_eksempel</title><g id="Layer_7" data-name="Layer 7"><g class="cls-2"><polygon class="cls-3" points="1596 25.54 -4 28.99 -4 0 1596 0 1596 25.54"/><polygon class="cls-3" points="1596 52.71 -4 56.17 -4 28.99 1596 25.54 1596 52.71"/><polygon class="cls-4" points="1596 79.89 -4 83.34 -4 56.17 1596 52.71 1596 79.89"/><polygon class="cls-5" points="1596 107.06 -4 110.52 -4 83.34 1596 79.89 1596 107.06"/><polygon class="cls-6" points="1596 134.24 -4 137.7 -4 110.52 1596 107.06 1596 134.24"/><polygon class="cls-7" points="1596 161.42 -4 164.87 -4 137.7 1596 134.24 1596 161.42"/><polygon class="cls-8" points="1596 188.59 -4 192.05 -4 164.87 1596 161.42 1596 188.59"/><polygon class="cls-9" points="1596 215.77 -4 219.23 -4 192.05 1596 188.59 1596 215.77"/><polygon class="cls-10" points="1596 242.95 -4 246.4 -4 219.23 1596 215.77 1596 242.95"/><polygon class="cls-11" points="1596 270.13 -4 273.58 -4 246.4 1596 242.95 1596 270.13"/><polygon class="cls-12" points="1596 297.3 -4 300.76 -4 273.58 1596 270.13 1596 297.3"/><polygon class="cls-13" points="1596 324.48 -4 327.93 -4 300.76 1596 297.3 1596 324.48"/><polygon class="cls-14" points="1596 351.65 -4 355.11 -4 327.93 1596 324.48 1596 351.65"/><polygon class="cls-15" points="1596 378.83 -4 382.29 -4 355.11 1596 351.65 1596 378.83"/><polygon class="cls-16" points="1596 406.01 -4 409.46 -4 382.29 1596 378.83 1596 406.01"/><polygon class="cls-17" points="1596 433.18 -4 436.64 -4 409.46 1596 406.01 1596 433.18"/><polygon class="cls-18" points="1596 460.36 -4 463.82 -4 436.64 1596 433.18 1596 460.36"/><polygon class="cls-19" points="1596 487.54 -4 490.99 -4 463.82 1596 460.36 1596 487.54"/><polygon class="cls-20" points="1596 514.71 -4 518.17 -4 490.99 1596 487.54 1596 514.71"/><polygon class="cls-21" points="1596 541.89 -4 545.35 -4 518.17 1596 514.71 1596 541.89"/><polygon class="cls-22" points="1596 569.07 -4 572.52 -4 545.35 1596 541.89 1596 569.07"/><polygon class="cls-23" points="1596 596.24 -4 599.7 -4 572.52 1596 569.07 1596 596.24"/><polygon class="cls-24" points="1596 623.42 -4 626.88 -4 599.7 1596 596.24 1596 623.42"/><polygon class="cls-25" points="1596 650.6 -4 654.05 -4 626.88 1596 623.42 1596 650.6"/><polygon class="cls-26" points="1596 677.77 -4 681.23 -4 654.05 1596 650.6 1596 677.77"/><polygon class="cls-27" points="1596 704.95 -4 708.41 -4 681.23 1596 677.77 1596 704.95"/><polygon class="cls-28" points="1596 732.13 -4 735.58 -4 708.41 1596 704.95 1596 732.13"/><polygon class="cls-29" points="1596 759.3 -4 762.76 -4 735.58 1596 732.13 1596 759.3"/><polygon class="cls-30" points="1596 786.48 -4 789.94 -4 762.76 1596 759.3 1596 786.48"/><polygon class="cls-31" points="1596 813.66 -4 817.11 -4 789.94 1596 786.48 1596 813.66"/><polygon class="cls-32" points="1596 840.83 -4 844.29 -4 817.11 1596 813.66 1596 840.83"/><polygon class="cls-33" points="1596 868.01 -4 871.47 -4 844.29 1596 840.83 1596 868.01"/><polygon class="cls-34" points="1596 895.19 -4 898.64 -4 871.47 1596 868.01 1596 895.19"/><polygon class="cls-34" points="-4 898.64 1596 895.19 1596 900 -4 900 -4 898.64"/></g><g class="cls-35"><ellipse class="cls-36" cx="804" cy="51" rx="218" ry="140"/></g><g class="cls-37"><ellipse class="cls-36" cx="804.5" cy="51.37" rx="178.5" ry="114.63"/></g><g class="cls-38"><ellipse class="cls-36" cx="803.5" cy="50.69" rx="123.5" ry="79.31"/></g><rect class="cls-39" x="774" y="-1" width="47" height="43" rx="12" ry="12"/><circle class="cls-40" cx="796.5" cy="63.5" r="19.5"/><rect class="cls-41" x="786" y="38" width="22" height="13" rx="6.5" ry="6.5"/><ellipse class="cls-42" cx="788" cy="73" rx="3" ry="9" transform="translate(260.87 663.26) rotate(-53.53)"/><rect class="cls-43" x="347" y="341" width="391" height="553" rx="12" ry="12"/><circle class="cls-44" cx="542.21" cy="602.39" r="165.33"/><circle class="cls-12" cx="649.5" cy="852.5" r="37.5"/><rect class="cls-44" x="585" y="353" width="129" height="69" rx="12" ry="12"/><circle class="cls-45" cx="576" cy="388" r="22"/><rect class="cls-46" x="567" y="379" width="17" height="17" rx="8.5" ry="8.5"/><path d="M629.53,361.21l8,8.12a7.62,7.62,0,0,1,1.62,2.21,6,6,0,0,1,.51,2.49,6.24,6.24,0,0,1-.76,3.05,4.79,4.79,0,0,1-2,2,3.2,3.2,0,0,1-.62.26,4.27,4.27,0,0,1-.71.15c-.27,0-.6.06-1,.07l-2.17-1.88-1.52-1.36c-1-.87-1.87-1.77-2.76-2.71a22.41,22.41,0,0,1-2.07-2.38,8.49,8.49,0,0,1-1.07-1.75,6,6,0,0,1-.4-1.36,6.92,6.92,0,0,1-.15-1.38,6.19,6.19,0,0,1,.73-3.09,4.79,4.79,0,0,1,2.07-2,4.37,4.37,0,0,1,1-.36A8.78,8.78,0,0,1,629.53,361.21Zm-5.07,18.36v-7.72l7.95,7.72Zm14.32-11-7.35-7.49h7.35Z"/><path d="M649,361v18.7h-1.14a6.08,6.08,0,0,1-3.71-1.27,8.6,8.6,0,0,1-2.69-3.42,11.16,11.16,0,0,1-1-4.68,11.49,11.49,0,0,1,.58-3.71,9,9,0,0,1,1.64-3,7.49,7.49,0,0,1,2.52-1.94,7.27,7.27,0,0,1,3.13-.7Zm1.27,18.7V361H651a6.76,6.76,0,0,1,3,.71,7.93,7.93,0,0,1,2.51,2,9.56,9.56,0,0,1,1.65,3,10.93,10.93,0,0,1,.59,3.66,11.45,11.45,0,0,1-.57,3.68,9.47,9.47,0,0,1-1.64,3,7.12,7.12,0,0,1-2.48,2,6.76,6.76,0,0,1-3,.71Z"/><path d="M660.53,379.57V361.09h8.52v18.48Zm9.79,0V361.09h2.4c.79,0,1.42,0,1.9,0a5.93,5.93,0,0,1,1.22.15,3.73,3.73,0,0,1,.87.32,3.83,3.83,0,0,1,1.33,1.12,4.69,4.69,0,0,1,.72,1.41,5.8,5.8,0,0,1,.25,1.66,5.09,5.09,0,0,1-1.1,3.36,4,4,0,0,1-.64.65c-.19.14-.52.34-1,.61a4.09,4.09,0,0,1,.9.46,3,3,0,0,1,.61.57,5.62,5.62,0,0,1,1.26,3.89v4.24Z"/><path d="M680.5,369.42v-8.33h17.18v8.31l-4.28-7.49h0v17.66h-8.55V361.91h0Z"/><path class="cls-47" d="M624.71,408.37V389.89h8.42v8.38h1.23v-8.38h8.44v18.48h-8.46v-8.56h-1.23v8.56Z"/><path class="cls-47" d="M649.41,408.37,644,389.89h9.31l4.5,15.25-1.06,3.23Zm9.12-5.4-3.91-13.08h8.2Z"/><path class="cls-47" d="M664.2,389.89h8.49v18.48H664.2Z"/><path class="cls-47" d="M675,408.37V389.89h8.55v18.48Zm9.81,0V389.89h1.06a6.27,6.27,0,0,1,3.76,1.27,8.75,8.75,0,0,1,2.8,3.41,10.41,10.41,0,0,1,1,4.57,10.85,10.85,0,0,1-.57,3.51,9.48,9.48,0,0,1-1.63,3,7.82,7.82,0,0,1-2.45,2,5.84,5.84,0,0,1-2.76.74Z"/><path class="cls-46" d="M601.28,395.58,591,392.3a2.85,2.85,0,0,1-1.77-3.8l.65-1.58a2.85,2.85,0,0,1,3.93-1.47l9.6,4.87A2.85,2.85,0,0,1,601.28,395.58Z"/><rect class="cls-48" x="680" y="560" width="44" height="84" rx="12" ry="12"/><path class="cls-49" d="M663,601a120,120,0,1,1-238.49-19.08q.75-4.67,1.84-9.21a120,120,0,0,1,236.19,17.68C662.84,593.89,663,597.43,663,601Z"/><path class="cls-50" d="M662.9,593q.35,5.25.24,10.62a120,120,0,1,1-239.95-5.11"/><circle class="cls-51" cx="435" cy="603" r="14"/><circle class="cls-52" cx="458" cy="589" r="14"/><circle class="cls-51" cx="466" cy="599" r="14"/><circle class="cls-51" cx="490" cy="601" r="14"/><circle class="cls-51" cx="485" cy="575" r="9"/><circle class="cls-51" cx="516" cy="557" r="9"/><circle class="cls-51" cx="618" cy="587" r="9"/><circle class="cls-51" cx="553" cy="587" r="9"/><circle class="cls-51" cx="504" cy="610" r="14"/><circle class="cls-52" cx="509" cy="596" r="14"/><circle class="cls-51" cx="521" cy="607" r="14"/><circle class="cls-51" cx="535" cy="585" r="14"/><circle class="cls-51" cx="553" cy="601" r="14"/><circle class="cls-52" cx="572" cy="585" r="14"/><circle class="cls-51" cx="572" cy="610" r="14"/><circle class="cls-51" cx="586" cy="613" r="14"/><circle class="cls-52" cx="603" cy="579" r="14"/><circle class="cls-51" cx="600" cy="593" r="14"/><circle class="cls-51" cx="584" cy="603" r="14"/><circle class="cls-52" cx="614" cy="607" r="14"/><circle class="cls-51" cx="631" cy="593" r="14"/><circle class="cls-51" cx="651" cy="601" r="14"/><path class="cls-53" d="M54.9,84.08,75.81,64.39,22.92,63.9,42.16,83.79A9.07,9.07,0,0,0,54.9,84.08Z"/><circle class="cls-53" cx="36.63" cy="52.63" r="17.63"/><circle class="cls-53" cx="62.59" cy="52.63" r="17.63"/><path class="cls-53" d="M122.89,85.54,143.8,65.85l-52.9-.49,19.25,19.89A9.06,9.06,0,0,0,122.89,85.54Z"/><circle class="cls-53" cx="104.62" cy="54.09" r="17.63"/><circle class="cls-53" cx="130.57" cy="54.09" r="17.63"/><path class="cls-53" d="M191.61,85.54l20.9-19.69-52.89-.49,19.24,19.89A9.07,9.07,0,0,0,191.61,85.54Z"/><circle class="cls-53" cx="173.33" cy="54.09" r="17.63"/><circle class="cls-53" cx="199.29" cy="54.09" r="17.63"/><path d="M71.51,249.23H59.32l6.39-8,.12-.14s.08-.11.15-.18.09-.11.13-.16a1.11,1.11,0,0,0,.12-.16l.15-.19c.08-.09.13-.17.17-.22l.17-.2c.75-.93,1.34-1.69,1.74-2.28a5.28,5.28,0,0,0,.74-1.46,5.36,5.36,0,0,0,.2-1.51,4.6,4.6,0,0,0-.52-2.19,5.66,5.66,0,0,0-1.64-1.82c.77,0,1.69-.07,2.76-.07a23.76,23.76,0,0,1,3.22.16,6.93,6.93,0,0,1,2,.53,7.76,7.76,0,0,1,3.58,3,8.33,8.33,0,0,1,.89,1.82,7.54,7.54,0,0,1,.39,1.91.25.25,0,0,1,0,.1,1.09,1.09,0,0,0,0,.17,2.18,2.18,0,0,1,0,.28v.16Zm-7.7-18.46a4,4,0,0,1,2,.54,4,4,0,0,1,1.46,1.47,3.92,3.92,0,0,1,.54,2,3.83,3.83,0,0,1-.54,2,4.14,4.14,0,0,1-1.46,1.48,4,4,0,0,1-2,.55,4,4,0,0,1-2-.55,4.06,4.06,0,0,1-1.46-1.48,4,4,0,0,1,0-4,4,4,0,0,1,1.46-1.48A3.88,3.88,0,0,1,63.81,230.77Zm9.82,18.46L80.16,241v8.26Z"/><path class="cls-54" d="M71,145.08v18.65H65a4.74,4.74,0,0,1-4.1-2.36A4.69,4.69,0,0,1,60.3,159a4,4,0,0,1,.44-1.79,5.3,5.3,0,0,1,2-2.19,6.06,6.06,0,0,1,1.24-.49v-.06a7.36,7.36,0,0,1-1.12-.38,4,4,0,0,1-.92-.57A4.35,4.35,0,0,1,60.35,150a4.46,4.46,0,0,1,.75-2.56,4.87,4.87,0,0,1,2.1-1.72,7.3,7.3,0,0,1,3.08-.61Zm1.56,18.65V145.08h5.15a6.28,6.28,0,0,1,2.9.66,4.91,4.91,0,0,1,2,1.81,5,5,0,0,1,.7,2.64,4.07,4.07,0,0,1-.56,2.09,4.38,4.38,0,0,1-1.59,1.58,3.73,3.73,0,0,1-.76.37,5.25,5.25,0,0,1-.94.25v.06a5,5,0,0,1,1.63.55,3.7,3.7,0,0,1,1.19,1,4.4,4.4,0,0,1,.82,1.34,4.07,4.07,0,0,1,.31,1.5,4.89,4.89,0,0,1-.61,2.42,4.66,4.66,0,0,1-4.07,2.37Z"/><path class="cls-54" d="M128.55,193H16.45A13.46,13.46,0,0,1,3,179.55v-44.2A13.46,13.46,0,0,1,16.45,121.9h112.1A13.46,13.46,0,0,1,142,135.35v44.2A13.46,13.46,0,0,1,128.55,193ZM16.45,133.43a2,2,0,0,0-1.92,1.92v44.2a2,2,0,0,0,1.92,1.92h112.1a2,2,0,0,0,1.92-1.92v-44.2a2,2,0,0,0-1.92-1.92Z"/><circle class="cls-54" cx="14.85" cy="133.75" r="10.57"/><circle class="cls-54" cx="129.51" cy="133.75" r="10.57"/><circle class="cls-54" cx="130.79" cy="180.51" r="10.57"/><circle class="cls-54" cx="14.85" cy="180.51" r="10.57"/><path class="cls-55" d="M128.55,278H16.45A13.46,13.46,0,0,1,3,264.55v-44.2A13.46,13.46,0,0,1,16.45,206.9h112.1A13.46,13.46,0,0,1,142,220.35v44.2A13.46,13.46,0,0,1,128.55,278ZM16.45,218.43a2,2,0,0,0-1.92,1.92v44.2a2,2,0,0,0,1.92,1.92h112.1a2,2,0,0,0,1.92-1.92v-44.2a2,2,0,0,0-1.92-1.92Z"/><circle class="cls-55" cx="14.85" cy="218.75" r="10.57"/><circle class="cls-55" cx="129.51" cy="218.75" r="10.57"/><circle class="cls-55" cx="130.79" cy="265.51" r="10.57"/><circle class="cls-55" cx="14.85" cy="265.51" r="10.57"/><path class="cls-54" d="M1103.27,135.48l-94.7,86.43a15.4,15.4,0,0,1-21.73-1l-34.08-37.34a15.39,15.39,0,0,1,1-21.73l94.7-86.44a15.4,15.4,0,0,1,21.73,1l34.08,37.34A15.4,15.4,0,0,1,1103.27,135.48ZM962.64,171.59a2.21,2.21,0,0,0-.14,3.1L996.58,212a2.22,2.22,0,0,0,3.1.14l94.7-86.43a2.24,2.24,0,0,0,.14-3.11l-34.08-37.34a2.22,2.22,0,0,0-3.1-.14Z"/><circle class="cls-54" cx="961.53" cy="173.09" r="12.09"/><circle class="cls-54" cx="1058.39" cy="84.68" r="12.09"/><circle class="cls-54" cx="1095.53" cy="123.2" r="12.09"/><circle class="cls-54" cx="997.59" cy="212.59" r="12.09"/><path class="cls-54" d="M1027.8,168.51l-8.69-9.52,10.48.37,3.74,4.1Zm-11.63-27.09-2.16-2.37,3.75-3.43,5.73,6.27,10.56.61a9.71,9.71,0,0,1,6.94,3.06,8.86,8.86,0,0,1,2.17,3.84,7,7,0,0,1-.28,4,8,8,0,0,1-1,1.86,15.84,15.84,0,0,1-1.74,2l-2.71-.06,3.31,3.62-3.8,3.47-6.69-7.33-7.18-.25q-6.18-.22-9.61-4a11.48,11.48,0,0,1-1.87-2.67,7.26,7.26,0,0,1-.79-2.71,6.45,6.45,0,0,1,.36-2.67A8.06,8.06,0,0,1,1012,143a15.34,15.34,0,0,1,1.52-1.76Zm8-1.93-3.52-3.85,5.1-4.66,8.34,9.13Z"/><path class="cls-54" d="M1331.61,137.32H1203.4A15.4,15.4,0,0,1,1188,121.94V71.39A15.4,15.4,0,0,1,1203.4,56h128.21A15.4,15.4,0,0,1,1347,71.39v50.55A15.4,15.4,0,0,1,1331.61,137.32ZM1203.4,69.19a2.22,2.22,0,0,0-2.19,2.2v50.55a2.22,2.22,0,0,0,2.19,2.2h128.21a2.23,2.23,0,0,0,2.2-2.2V71.39a2.22,2.22,0,0,0-2.2-2.2Z"/><circle class="cls-54" cx="1201.57" cy="69.55" r="12.09"/><circle class="cls-54" cx="1332.71" cy="69.55" r="12.09"/><circle class="cls-54" cx="1334.18" cy="123.04" r="12.09"/><circle class="cls-54" cx="1201.57" cy="123.04" r="12.09"/><path class="cls-54" d="M1253.61,110.84V98l7.48,7.34v5.55ZM1263.28,83V79.79h5.08v8.48l7.4,7.58a9.69,9.69,0,0,1,3.06,6.93,8.81,8.81,0,0,1-1,4.3,7,7,0,0,1-2.94,2.81,8.81,8.81,0,0,1-2,.72,16.41,16.41,0,0,1-2.61.27l-2-1.87v4.91h-5.15V104l-5.13-5q-4.41-4.32-4.41-9.42a11.64,11.64,0,0,1,.42-3.23,7.38,7.38,0,0,1,1.24-2.53,6.52,6.52,0,0,1,2.08-1.74,7.79,7.79,0,0,1,1.68-.68,13.57,13.57,0,0,1,2.3-.27Zm7.23,4V81.77h6.91V94.13Z"/><path class="cls-54" d="M1020.62,385.69l-127.9-8.94a15.4,15.4,0,0,1-14.27-16.42L882,309.9a15.41,15.41,0,0,1,16.42-14.27l127.9,8.94A15.4,15.4,0,0,1,1040.57,321L1037,371.42A15.4,15.4,0,0,1,1020.62,385.69ZM897.47,308.78a2.23,2.23,0,0,0-2.34,2l-3.53,50.43a2.24,2.24,0,0,0,2,2.35l127.9,8.94a2.23,2.23,0,0,0,2.35-2l3.52-50.43a2.23,2.23,0,0,0-2-2.35Z"/><circle class="cls-54" cx="895.62" cy="309.02" r="12.09"/><circle class="cls-54" cx="1026.44" cy="318.17" r="12.09"/><circle class="cls-54" cx="1024.18" cy="371.62" r="12.09"/><circle class="cls-54" cx="891.89" cy="362.37" r="12.09"/><path class="cls-54" d="M944.65,353.84l.9-12.86,7,7.84-.39,5.54Zm11.59-27.1.22-3.21,5.08.36-.6,8.46,6.85,8.08a9.66,9.66,0,0,1,2.57,7.12,8.82,8.82,0,0,1-1.28,4.23,7,7,0,0,1-3.13,2.59,8.27,8.27,0,0,1-2,.58,14.76,14.76,0,0,1-2.61.09l-1.83-2-.34,4.89-5.14-.35.69-9.91-4.77-5.37q-4.1-4.62-3.74-9.71a11.42,11.42,0,0,1,.65-3.19,7.3,7.3,0,0,1,1.41-2.44,6.35,6.35,0,0,1,2.19-1.58,7.37,7.37,0,0,1,1.72-.57,13.63,13.63,0,0,1,2.32-.11Zm6.94,4.48.36-5.2,6.89.48-.86,12.33Z"/><path class="cls-54" d="M1250.54,280.64l-124.42,31a15.41,15.41,0,0,1-18.65-11.22l-12.2-49a15.4,15.4,0,0,1,11.21-18.65l124.42-31a15.41,15.41,0,0,1,18.65,11.21l12.2,49.06A15.4,15.4,0,0,1,1250.54,280.64Zm-140.87-35.16a2.24,2.24,0,0,0-1.61,2.66l12.21,49.06a2.23,2.23,0,0,0,2.66,1.6l124.42-31a2.21,2.21,0,0,0,1.6-2.66l-12.2-49.06a2.24,2.24,0,0,0-2.67-1.6Z"/><circle class="cls-54" cx="1107.98" cy="246.28" r="12.09"/><circle class="cls-54" cx="1235.24" cy="214.61" r="12.09"/><circle class="cls-54" cx="1249.57" cy="266.16" r="12.09"/><circle class="cls-54" cx="1120.89" cy="298.18" r="12.09"/><path class="cls-54" d="M1168.44,273.78l-3.11-12.51,9,5.32,1.34,5.38Zm2.66-29.36-.77-3.11,4.93-1.23,2,8.24,9,5.56a9.66,9.66,0,0,1,4.64,6,8.83,8.83,0,0,1,.08,4.41,6.94,6.94,0,0,1-2.17,3.43,8.43,8.43,0,0,1-1.73,1.18,16.08,16.08,0,0,1-2.47.89l-2.35-1.34,1.18,4.76-5,1.24-2.4-9.63-6.19-3.64q-5.33-3.12-6.56-8.08a11.32,11.32,0,0,1-.37-3.24,7.4,7.4,0,0,1,.59-2.75,6.42,6.42,0,0,1,1.59-2.18,7.58,7.58,0,0,1,1.47-1.07,14.24,14.24,0,0,1,2.17-.82Zm8,2.13-1.26-5.06,6.7-1.67,3,12Z"/><rect class="cls-49" x="751.8" y="207.91" width="150.4" height="70.29" rx="12" ry="12" transform="translate(-32.24 311.67) rotate(-20.94)"/><path d="M903.75,258.59,780.23,305.87a15.89,15.89,0,0,1-20.49-9.15L741.1,248a15.89,15.89,0,0,1,9.15-20.5l123.52-47.28a15.89,15.89,0,0,1,20.49,9.15L912.9,238.1A15.88,15.88,0,0,1,903.75,258.59ZM755.11,240.22a2.3,2.3,0,0,0-1.31,2.93l18.64,48.7a2.3,2.3,0,0,0,2.93,1.31l123.52-47.27A2.3,2.3,0,0,0,900.2,243l-18.64-48.7a2.3,2.3,0,0,0-2.93-1.31Z"/><circle class="cls-56" cx="753.48" cy="241.25" r="12.47"/><circle class="cls-56" cx="879.82" cy="192.9" r="12.47"/><circle class="cls-56" cx="900.96" cy="243.88" r="12.47"/><circle class="cls-56" cx="773.2" cy="292.78" r="12.47"/><path class="cls-55" d="M818.83,261.84l-4.75-12.42,9.92,4.32,2,5.34Zm-1-30.39-1.18-3.09,4.9-1.88,3.13,8.18,9.92,4.57a10,10,0,0,1,5.5,5.55,9.15,9.15,0,0,1,.63,4.51,7.12,7.12,0,0,1-1.79,3.78,8.17,8.17,0,0,1-1.62,1.42,17.08,17.08,0,0,1-2.41,1.23l-2.58-1.08,1.8,4.73-5,1.89-3.66-9.56-6.79-2.95q-5.85-2.53-7.73-7.45a11.92,11.92,0,0,1-.78-3.27,7.57,7.57,0,0,1,.26-2.9,6.52,6.52,0,0,1,1.36-2.43,8.07,8.07,0,0,1,1.36-1.28,14.29,14.29,0,0,1,2.13-1.11Zm8.45,1.18-1.93-5,6.66-2.54L835.62,237Z"/><rect class="cls-49" x="1121.8" y="360.91" width="150.4" height="70.29" rx="12" ry="12" transform="translate(24.29 -67.01) rotate(3.24)"/><path d="M1260.65,441.67l-132-7.47a15.89,15.89,0,0,1-14.95-16.75l2.94-52.06a15.9,15.9,0,0,1,16.75-14.95l132,7.47a15.89,15.89,0,0,1,14.95,16.75l-2.94,52.06A15.9,15.9,0,0,1,1260.65,441.67ZM1132.58,364a2.3,2.3,0,0,0-2.39,2.14l-3,52.06a2.3,2.3,0,0,0,2.14,2.39l132,7.48a2.3,2.3,0,0,0,2.39-2.14l3-52.06a2.3,2.3,0,0,0-2.14-2.39Z"/><circle class="cls-56" cx="1130.67" cy="364.29" r="12.47"/><circle class="cls-56" cx="1265.74" cy="371.94" r="12.47"/><circle class="cls-56" cx="1264.13" cy="427.11" r="12.47"/><circle class="cls-56" cx="1127.55" cy="419.38" r="12.47"/><path class="cls-55" d="M1181.86,409.85l.75-13.28,7.28,8-.32,5.71Zm11.58-28.11.18-3.31,5.24.29-.49,8.75,7.17,8.23a10,10,0,0,1,2.75,7.32,9.13,9.13,0,0,1-1.27,4.37,7.2,7.2,0,0,1-3.19,2.72,7.93,7.93,0,0,1-2.06.62,16.3,16.3,0,0,1-2.7.13l-1.91-2-.29,5.06-5.3-.3.58-10.23-5-5.47q-4.29-4.71-4-10a11.94,11.94,0,0,1,.63-3.3,7.47,7.47,0,0,1,1.42-2.53,6.55,6.55,0,0,1,2.24-1.67,7.41,7.41,0,0,1,1.77-.6,14.67,14.67,0,0,1,2.39-.15Zm7.22,4.53.3-5.37,7.12.4-.73,12.73Z"/><path class="cls-57" d="M1152.68,828.36h-.32a5.66,5.66,0,0,1-5.35-6c0-.6.89-14.92,7.44-36.65a249.15,249.15,0,0,1,26.82-59.12,5.67,5.67,0,1,1,9.64,6A238,238,0,0,0,1165.32,789c-6.17,20.45-7,33.87-7,34A5.67,5.67,0,0,1,1152.68,828.36Z"/><path class="cls-57" d="M1343.92,752.18c-4.52,0-9.07-.12-13.62-.36a5.67,5.67,0,0,1,.59-11.33,237.91,237.91,0,0,0,61.78-4.69c20.9-4.42,33-10.17,33.17-10.23a5.68,5.68,0,1,1,4.9,10.24c-.54.25-13.51,6.39-35.72,11.09A246.75,246.75,0,0,1,1343.92,752.18Z"/><rect class="cls-57" x="1279.19" y="797.02" width="19.1" height="90.71" rx="3.03" ry="3.03"/><rect class="cls-57" x="1231.45" y="797.02" width="19.1" height="90.71" rx="3.03" ry="3.03"/><path class="cls-58" d="M1176.54,746.89c0,68.56,35.84,69.23,85.94,69.23s95.48-.67,95.48-69.23-40.61-162.31-90.71-162.31S1176.54,678.34,1176.54,746.89Z"/><path class="cls-59" d="M1175.36,746.92c0,68.53,36.52,69.2,87.57,69.2s97.3-.67,97.3-69.2-93.58-4.39-93.58-4.39S1175.36,678.38,1175.36,746.92Z"/><ellipse class="cls-60" cx="1246.96" cy="601.28" rx="13.13" ry="4.77" transform="translate(-124.06 792.98) rotate(-33.7)"/><path class="cls-61" d="M1187.45,876.22,1231.67,865c-.81,5.4,2.3,11.5,9.33,11.5,5.63,0,8.74-3.91,9.34-8.24l0,.11,1.7,13.73a7,7,0,0,1-6.92,7.86h-56C1180.93,890,1179.48,878.24,1187.45,876.22Z"/><ellipse class="cls-62" cx="1187.63" cy="880.36" rx="3.91" ry="2.38" transform="translate(-286.45 768.14) rotate(-32.2)"/><path class="cls-61" d="M1342.15,876.22,1297.93,865c.81,5.4-2.3,11.5-9.33,11.5-5.63,0-8.74-3.91-9.34-8.24l0,.11-1.7,13.73a7,7,0,0,0,6.93,7.86h56C1348.67,890,1350.12,878.24,1342.15,876.22Z"/><ellipse class="cls-62" cx="1341.97" cy="880.36" rx="2.38" ry="3.91" transform="translate(-118.03 1546.92) rotate(-57.8)"/><circle class="cls-63" cx="1250.25" cy="660.82" r="17.02"/><path class="cls-64" d="M1250.25,681.24a20.42,20.42,0,1,1,20.42-20.42A20.45,20.45,0,0,1,1250.25,681.24Zm0-34a13.62,13.62,0,1,0,13.61,13.62A13.64,13.64,0,0,0,1250.25,647.2Z"/><circle class="cls-63" cx="1288.82" cy="660.82" r="17.02"/><path class="cls-64" d="M1288.82,681.24a20.42,20.42,0,1,1,20.42-20.42A20.44,20.44,0,0,1,1288.82,681.24Zm0-34a13.62,13.62,0,1,0,13.62,13.62A13.63,13.63,0,0,0,1288.82,647.2Z"/><circle class="cls-65" cx="1285.42" cy="657.41" r="4.54"/><circle class="cls-65" cx="1245.71" cy="656.28" r="4.54"/><rect class="cls-55" x="1231.44" y="630.37" width="34.25" height="6.81" rx="1.5" ry="1.5" transform="translate(193.18 -286.42) rotate(14.17)"/><rect class="cls-55" x="1271.05" y="629.99" width="36.45" height="6.81" rx="1.5" ry="1.5" transform="translate(-113.29 323.2) rotate(-13.69)"/><path class="cls-55" d="M1253.77,718.71c-21.44,0-32.81-18.05-32.92-18.23a.68.68,0,0,1,.37-1,1,1,0,0,1,1.19.31c.11.18,11.48,18.15,32.59,17.42a.75.75,0,1,1,.07,1.48C1254.64,718.71,1254.2,718.71,1253.77,718.71Z"/><path class="cls-55" d="M1253.77,719.21c-21.66,0-33.23-18.28-33.35-18.47a1.12,1.12,0,0,1-.12-.94,1.26,1.26,0,0,1,.72-.78,1.45,1.45,0,0,1,1.81.51c.11.18,11.36,17.89,32.16,17.18a1.32,1.32,0,0,1,1,.32,1.27,1.27,0,0,1,.44.87,1.15,1.15,0,0,1-.32.84,1.4,1.4,0,0,1-1,.45C1254.65,719.21,1254.21,719.21,1253.77,719.21Zm-32.14-19.32a.78.78,0,0,0-.21,0,.28.28,0,0,0-.17.17.18.18,0,0,0,0,.12c.11.18,11.89,18.73,33.79,18a.46.46,0,0,0,.31-.12.21.21,0,0,0,.05-.13.24.24,0,0,0-.09-.15.39.39,0,0,0-.28-.08c-21.5.72-33-17.47-33.07-17.66A.43.43,0,0,0,1221.63,699.89Z"/><polygon class="cls-48" points="821 387 738.07 410.54 738 474 821 387"/></g></svg>
