<svg xmlns="http://www.w3.org/2000/svg" xmlns:xlink="http://www.w3.org/1999/xlink" width="1600" height="900" viewBox="0 0 1600 900"><defs><style>.cls-1{fill:none;}.cls-2{clip-path:url(#clip-path);}.cls-3{fill:#1d1d1b;}.cls-4{fill:#1e1e1c;}.cls-5{fill:#1f1f1d;}.cls-6{fill:#20201e;}.cls-7{fill:#21211f;}.cls-8{fill:#222220;}.cls-9{fill:#232321;}.cls-10{fill:#242422;}.cls-11{fill:#252523;}.cls-12{fill:#262624;}.cls-13{fill:#272725;}.cls-14{fill:#282826;}.cls-15{fill:#292927;}.cls-16{fill:#2a2a28;}.cls-17{fill:#2b2b29;}.cls-18{fill:#2c2c2a;}.cls-19{fill:#2e2e2c;}.cls-20{fill:#2f2f2d;}.cls-21{fill:#30302e;}.cls-22{fill:#31312f;}.cls-23{fill:#323230;}.cls-24{fill:#333331;}.cls-25{fill:#343432;}.cls-26{fill:#353533;}.cls-27{fill:#363634;}.cls-28{fill:#373735;}.cls-29{fill:#383836;}.cls-30{fill:#393937;}.cls-31{fill:#3a3a38;}.cls-32{fill:#3b3b39;}.cls-33{fill:#3c3c3a;}.cls-34{fill:#3d3d3b;}.cls-35{opacity:0.26;}.cls-36{fill:#e8dd80;}.cls-37{opacity:0.52;}.cls-38{opacity:0.76;}.cls-39{fill:#303030;}.cls-40{fill:#f2e353;}.cls-41{fill:#4f4f4e;}.cls-42{fill:#fcfcfc;}.cls-43{fill:#8e8d88;}.cls-44{fill:#494947;}.cls-45{fill:#282828;}.cls-46{fill:#914f2a;}.cls-47{fill:#c6c6c4;}.cls-48{fill:#1e1e1e;}.cls-49{fill:#606060;}</style><clipPath id="clip-path"><rect class="cls-1" x="-4" width="1600" height="900"/></clipPath></defs><title>spilskaerm</title><g id="Layer_7" data-name="Layer 7"><g class="cls-2"><polygon class="cls-3" points="1596 25.54 -4 28.99 -4 0 1596 0 1596 25.54"/><polygon class="cls-3" points="1596 52.71 -4 56.17 -4 28.99 1596 25.54 1596 52.71"/><polygon class="cls-4" points="1596 79.89 -4 83.34 -4 56.17 1596 52.71 1596 79.89"/><polygon class="cls-5" points="1596 107.06 -4 110.52 -4 83.34 1596 79.89 1596 107.06"/><polygon class="cls-6" points="1596 134.24 -4 137.7 -4 110.52 1596 107.06 1596 134.24"/><polygon class="cls-7" points="1596 161.42 -4 164.87 -4 137.7 1596 134.24 1596 161.42"/><polygon class="cls-8" points="1596 188.59 -4 192.05 -4 164.87 1596 161.42 1596 188.59"/><polygon class="cls-9" points="1596 215.77 -4 219.23 -4 192.05 1596 188.59 1596 215.77"/><polygon class="cls-10" points="1596 242.95 -4 246.4 -4 219.23 1596 215.77 1596 242.95"/><polygon class="cls-11" points="1596 270.13 -4 273.58 -4 246.4 1596 242.95 1596 270.13"/><polygon class="cls-12" points="1596 297.3 -4 300.76 -4 273.58 1596 270.13 1596 297.3"/><polygon class="cls-13" points="1596 324.48 -4 327.93 -4 300.76 1596 297.3 1596 324.48"/><polygon class="cls-14" points="1596 351.65 -4 355.11 -4 327.93 1596 324.48 1596 351.65"/><polygon class="cls-15" points="1596 378.83 -4 382.29 -4 355.11 1596 351.65 1596 378.83"/><polygon class="cls-16" points="1596 406.01 -4 409.46 -4 382.29 1596 378.83 1596 406.01"/><polygon class="cls-17" points="1596 433.18 -4 436.64 -4 409.46 1596 406.01 1596 433.18"/><polygon class="cls-18" points="1596 460.36 -4 463.82 -4 436.64 1596 433.18 1596 460.36"/><polygon class="cls-19" points="1596 487.54 -4 490.99 -4 463.82 1596 460.36 1596 487.54"/><polygon class="cls-20" points="1596 514.71 -4 518.17 -4 490.99 1596 487.54 1596 514.71"/><polygon class="cls-21" points="1596 541.89 -4 545.35 -4 518.17 1596 514.71 1596 541.89"/><polygon class="cls-22" points="1596 569.07 -4 572.52 -4 545.35 1596 541.89 1596 569.07"/><polygon class="cls-23" points="1596 596.24 -4 599.7 -4 572.52 1596 569.07 1596 596.24"/><polygon class="cls-24" points="1596 623.42 -4 626.88 -4 599.7 1596 596.24 1596 623.42"/><polygon class="cls-25" points="1596 650.6 -4 654.05 -4 626.88 1596 623.42 1596 650.6"/><polygon class="cls-26" points="1596 677.77 -4 681.23 -4 654.05 1596 650.6 1596 677.77"/><polygon class="cls-27" points="1596 704.95 -4 708.41 -4 681.23 1596 677.77 1596 704.95"/><polygon class="cls-28" points="1596 732.13 -4 735.58 -4 708.41 1596 704.95 1596 732.13"/><polygon class="cls-29" points="1596 759.3 -4 762.76 -4 735.58 1596 732.13 1596 759.3"/><polygon class="cls-30" points="1596 786.48 -4 789.94 -4 762.76 1596 759.3 1596 786.48"/><polygon class="cls-31" points="1596 813.66 -4 817.11 -4 789.94 1596 786.48 1596 813.66"/><polygon class="cls-32" points="1596 840.83 -4 844.29 -4 817.11 1596 813.66 1596 840.83"/><polygon class="cls-33" points="1596 868.01 -4 871.47 -4 844.29 1596 840.83 1596 868.01"/><polygon class="cls-34" points="1596 895.19 -4 898.64 -4 871.47 1596 868.01 1596 895.19"/><polygon class="cls-34" points="-4 898.64 1596 895.19 1596 900 -4 900 -4 898.64"/></g><g class="cls-35"><ellipse class="cls-36" cx="804" cy="51" rx="218" ry="140"/></g><g class="cls-37"><ellipse class="cls-36" cx="804.5" cy="51.37" rx="178.5" ry="114.63"/></g><g class="cls-38"><ellipse class="cls-36" cx="803.5" cy="50.69" rx="123.5" ry="79.31"/></g><rect class="cls-39" x="774" y="-1" width="47" height="43" rx="12" ry="12"/><circle class="cls-40" cx="796.5" cy="63.5" r="19.5"/><rect class="cls-41" x="786" y="38" width="22" height="13" rx="6.5" ry="6.5"/><ellipse class="cls-42" cx="788" cy="73" rx="3" ry="9" transform="translate(260.87 663.26) rotate(-53.53)"/><rect class="cls-43" x="349" y="340" width="391" height="553" rx="12" ry="12"/><circle class="cls-44" cx="544.21" cy="601.39" r="165.33"/><circle class="cls-12" cx="651.5" cy="851.5" r="37.5"/><rect class="cls-44" x="587" y="352" width="129" height="69" rx="12" ry="12"/><circle class="cls-45" cx="578" cy="387" r="22"/><rect class="cls-46" x="569" y="378" width="17" height="17" rx="8.5" ry="8.5"/><path d="M631.53,360.21l8,8.12a7.62,7.62,0,0,1,1.62,2.21,6,6,0,0,1,.51,2.49,6.24,6.24,0,0,1-.76,3.05,4.79,4.79,0,0,1-2,2,3.2,3.2,0,0,1-.62.26,4.27,4.27,0,0,1-.71.15c-.27,0-.6.06-1,.07l-2.17-1.88-1.52-1.36c-1-.87-1.87-1.77-2.76-2.71a22.41,22.41,0,0,1-2.07-2.38,8.49,8.49,0,0,1-1.07-1.75,6,6,0,0,1-.4-1.36,6.92,6.92,0,0,1-.15-1.38,6.19,6.19,0,0,1,.73-3.09,4.79,4.79,0,0,1,2.07-2,4.37,4.37,0,0,1,1-.36A8.78,8.78,0,0,1,631.53,360.21Zm-5.07,18.36v-7.72l7.95,7.72Zm14.32-11-7.35-7.49h7.35Z"/><path d="M651,360v18.7h-1.14a6.08,6.08,0,0,1-3.71-1.27,8.6,8.6,0,0,1-2.69-3.42,11.16,11.16,0,0,1-1-4.68,11.49,11.49,0,0,1,.58-3.71,9,9,0,0,1,1.64-3,7.49,7.49,0,0,1,2.52-1.94,7.27,7.27,0,0,1,3.13-.7Zm1.27,18.7V360H653a6.76,6.76,0,0,1,3,.71,7.93,7.93,0,0,1,2.51,2,9.56,9.56,0,0,1,1.65,3,10.93,10.93,0,0,1,.59,3.66,11.45,11.45,0,0,1-.57,3.68,9.47,9.47,0,0,1-1.64,3,7.12,7.12,0,0,1-2.48,2,6.76,6.76,0,0,1-3,.71Z"/><path d="M662.53,378.57V360.09h8.52v18.48Zm9.79,0V360.09h2.4c.79,0,1.42,0,1.9,0a5.93,5.93,0,0,1,1.22.15,3.73,3.73,0,0,1,.87.32,3.83,3.83,0,0,1,1.33,1.12,4.69,4.69,0,0,1,.72,1.41,5.8,5.8,0,0,1,.25,1.66,5.09,5.09,0,0,1-1.1,3.36,4,4,0,0,1-.64.65c-.19.14-.52.34-1,.61a4.09,4.09,0,0,1,.9.46,3,3,0,0,1,.61.57,5.62,5.62,0,0,1,1.26,3.89v4.24Z"/><path d="M682.5,368.42v-8.33h17.18v8.31l-4.28-7.49h0v17.66h-8.55V360.91h0Z"/><path class="cls-47" d="M626.71,407.37V388.89h8.42v8.38h1.23v-8.38h8.44v18.48h-8.46v-8.56h-1.23v8.56Z"/><path class="cls-47" d="M651.41,407.37,646,388.89h9.31l4.5,15.25-1.06,3.23Zm9.12-5.4-3.91-13.08h8.2Z"/><path class="cls-47" d="M666.2,388.89h8.49v18.48H666.2Z"/><path class="cls-47" d="M677,407.37V388.89h8.55v18.48Zm9.81,0V388.89h1.06a6.27,6.27,0,0,1,3.76,1.27,8.75,8.75,0,0,1,2.8,3.41,10.41,10.41,0,0,1,1,4.57,10.85,10.85,0,0,1-.57,3.51,9.48,9.48,0,0,1-1.63,3,7.82,7.82,0,0,1-2.45,2,5.84,5.84,0,0,1-2.76.74Z"/><rect class="cls-48" x="682" y="559" width="44" height="84" rx="12" ry="12"/><path class="cls-49" d="M666,602a120,120,0,1,1-238.49-19.08q.75-4.67,1.84-9.21a120,120,0,0,1,236.19,17.68C665.84,594.89,666,598.43,666,602Z"/><polygon class="cls-48" points="823 386 740.07 409.54 740 473 823 386"/><path class="cls-46" d="M604.28,396.58,594,393.3a2.85,2.85,0,0,1-1.77-3.8l.65-1.58a2.85,2.85,0,0,1,3.93-1.47l9.6,4.87A2.85,2.85,0,0,1,604.28,396.58Z"/></g></svg>
