<svg xmlns="http://www.w3.org/2000/svg" xmlns:xlink="http://www.w3.org/1999/xlink" width="1599" height="899" viewBox="0 0 1599 899"><defs><style>.cls-1{fill:none;}.cls-2{clip-path:url(#clip-path);}.cls-3{fill:#11004e;}.cls-4{fill:#12004f;}.cls-5{fill:#13004f;}.cls-6{fill:#130050;}.cls-7{fill:#140050;}.cls-8{fill:#140051;}.cls-9{fill:#150051;}.cls-10{fill:#150052;}.cls-11{fill:#160052;}.cls-12{fill:#170053;}.cls-13{fill:#170054;}.cls-14{fill:#180054;}.cls-15{fill:#190055;}.cls-16{fill:#1a0055;}.cls-17{fill:#1b0056;}.cls-18{fill:#1b0057;}.cls-19{fill:#1c0058;}.cls-20{fill:#1d0058;}.cls-21{fill:#1e0059;}.cls-22{fill:#1f005a;}.cls-23{fill:#20005b;}.cls-24{fill:#21005c;}.cls-25{fill:#22005c;}.cls-26{fill:#23005d;}.cls-27{fill:#24005e;}.cls-28{fill:#25005f;}.cls-29{fill:#260060;}.cls-30{fill:#270061;}.cls-31{fill:#280062;}.cls-32{fill:#290063;}.cls-33{fill:#2b0064;}.cls-34{fill:#2c0065;}.cls-35{fill:#2d0066;}.cls-36{fill:#2e0067;}.cls-37{fill:#2f0068;}.cls-38{fill:#310069;}.cls-39{fill:#32006a;}.cls-40{fill:#33006b;}.cls-41{fill:#34006c;}.cls-42{fill:#36006d;}.cls-43{fill:#37006e;}.cls-44{fill:#380070;}.cls-45{fill:#3a0071;}.cls-46{fill:#3b0072;}.cls-47{fill:#3d0073;}.cls-48{fill:#3e0074;}.cls-49{fill:#3f0075;}.cls-50{fill:#410077;}.cls-51{fill:#420078;}.cls-52{fill:#440079;}.cls-53{fill:#45007a;}.cls-54{fill:#47007c;}.cls-55{fill:#48007d;}.cls-56{fill:#4a007e;}.cls-57{fill:#4b0080;}.cls-58{fill:#4d0081;}.cls-59{fill:#eae16a;}.cls-60{opacity:0.15;}.cls-61{fill:#eaea75;}.cls-62{opacity:0.17;}.cls-63{fill:#e8cd5d;}.cls-64{fill:#303030;}.cls-65{fill:#232323;}.cls-66{fill:#ddcf4e;}.cls-67{fill:#18161e;}.cls-68{fill:#121116;}.cls-69{fill:#1d1d1e;}.cls-70{fill:#2b2b2d;}.cls-71{fill:#141414;}.cls-72{fill:#101614;}.cls-73{fill:#111;}.cls-74{fill:#e2c034;}.cls-75{fill:#282626;}.cls-76{fill:#1a2a49;}.cls-77{fill:#f9f9f9;}.cls-78{fill:#fff;}.cls-79{fill:#3d3023;}.cls-80{fill:#5b100f;}</style><clipPath id="clip-path"><rect class="cls-1" x="-0.5" y="-0.5" width="1600" height="900"/></clipPath></defs><title>startskaerm</title><g id="Layer_7" data-name="Layer 7"><g id="Layer_4" data-name="Layer 4"><g class="cls-2"><rect class="cls-3" x="-0.5" y="-0.5" width="1600" height="14.72"/><rect class="cls-3" x="-0.5" y="14.22" width="1600" height="14.99"/><rect class="cls-3" x="-0.5" y="29.21" width="1600" height="14.99"/><rect class="cls-3" x="-0.5" y="44.2" width="1600" height="14.99"/><rect class="cls-4" x="-0.5" y="59.19" width="1600" height="14.99"/><rect class="cls-4" x="-0.5" y="74.19" width="1600" height="14.99"/><rect class="cls-4" x="-0.5" y="89.18" width="1600" height="14.99"/><rect class="cls-5" x="-0.5" y="104.17" width="1600" height="14.99"/><rect class="cls-6" x="-0.5" y="119.16" width="1600" height="14.99"/><rect class="cls-7" x="-0.5" y="134.15" width="1600" height="14.99"/><rect class="cls-8" x="-0.5" y="149.14" width="1600" height="14.99"/><rect class="cls-9" x="-0.5" y="164.14" width="1600" height="14.99"/><rect class="cls-10" x="-0.5" y="179.13" width="1600" height="14.99"/><rect class="cls-11" x="-0.5" y="194.12" width="1600" height="14.99"/><rect class="cls-12" x="-0.5" y="209.11" width="1600" height="14.99"/><rect class="cls-13" x="-0.5" y="224.1" width="1600" height="14.99"/><rect class="cls-14" x="-0.5" y="239.1" width="1600" height="14.99"/><rect class="cls-15" x="-0.5" y="254.09" width="1600" height="14.99"/><rect class="cls-16" x="-0.5" y="269.08" width="1600" height="14.99"/><rect class="cls-17" x="-0.5" y="284.07" width="1600" height="14.99"/><rect class="cls-18" x="-0.5" y="299.06" width="1600" height="14.99"/><rect class="cls-19" x="-0.5" y="314.05" width="1600" height="14.99"/><rect class="cls-20" x="-0.5" y="329.05" width="1600" height="14.99"/><rect class="cls-21" x="-0.5" y="344.04" width="1600" height="14.99"/><rect class="cls-22" x="-0.5" y="359.03" width="1600" height="14.99"/><rect class="cls-23" x="-0.5" y="374.02" width="1600" height="14.99"/><rect class="cls-24" x="-0.5" y="389.01" width="1600" height="14.99"/><rect class="cls-25" x="-0.5" y="404" width="1600" height="14.99"/><rect class="cls-26" x="-0.5" y="419" width="1600" height="14.99"/><rect class="cls-27" x="-0.5" y="433.99" width="1600" height="14.99"/><rect class="cls-28" x="-0.5" y="448.98" width="1600" height="14.99"/><rect class="cls-29" x="-0.5" y="463.97" width="1600" height="14.99"/><rect class="cls-30" x="-0.5" y="478.96" width="1600" height="14.99"/><rect class="cls-31" x="-0.5" y="493.95" width="1600" height="14.99"/><rect class="cls-32" x="-0.5" y="508.95" width="1600" height="14.99"/><rect class="cls-33" x="-0.5" y="523.94" width="1600" height="14.99"/><rect class="cls-34" x="-0.5" y="538.93" width="1600" height="14.99"/><rect class="cls-35" x="-0.5" y="553.92" width="1600" height="14.99"/><rect class="cls-36" x="-0.5" y="568.91" width="1600" height="14.99"/><rect class="cls-37" x="-0.5" y="583.9" width="1600" height="14.99"/><rect class="cls-38" x="-0.5" y="598.9" width="1600" height="14.99"/><rect class="cls-39" x="-0.5" y="613.89" width="1600" height="14.99"/><rect class="cls-40" x="-0.5" y="628.88" width="1600" height="14.99"/><rect class="cls-41" x="-0.5" y="643.87" width="1600" height="14.99"/><rect class="cls-42" x="-0.5" y="658.86" width="1600" height="14.99"/><rect class="cls-43" x="-0.5" y="673.85" width="1600" height="14.99"/><rect class="cls-44" x="-0.5" y="688.85" width="1600" height="14.99"/><rect class="cls-45" x="-0.5" y="703.84" width="1600" height="14.99"/><rect class="cls-46" x="-0.5" y="718.83" width="1600" height="14.99"/><rect class="cls-47" x="-0.5" y="733.82" width="1600" height="14.99"/><rect class="cls-48" x="-0.5" y="748.81" width="1600" height="14.99"/><rect class="cls-49" x="-0.5" y="763.8" width="1600" height="14.99"/><rect class="cls-50" x="-0.5" y="778.8" width="1600" height="14.99"/><rect class="cls-51" x="-0.5" y="793.79" width="1600" height="14.99"/><rect class="cls-52" x="-0.5" y="808.78" width="1600" height="14.99"/><rect class="cls-53" x="-0.5" y="823.77" width="1600" height="14.99"/><rect class="cls-54" x="-0.5" y="838.76" width="1600" height="14.99"/><rect class="cls-55" x="-0.5" y="853.75" width="1600" height="14.99"/><rect class="cls-56" x="-0.5" y="868.75" width="1600" height="14.99"/><rect class="cls-57" x="-0.5" y="883.74" width="1600" height="14.99"/><rect class="cls-58" x="-0.5" y="898.73" width="1600" height="0.77"/></g><path d="M1600,900H-1V-1H1600ZM0,899H1599V0H0Z"/><path class="cls-59" d="M590.35,225.13l-19.74.54,1.93-9.66,14.15-.78,5.14,2.48Zm2.38-11.91-19.86,1.15,1.92-9.66,14.28-1.43,5.15,2.45Zm-6.46-11.3L575.14,203l1.16-5.81Z"/><path class="cls-59" d="M595.68,200l-18.17-6.37,3.66-10.43L589.4,186l.54-1.53-8.24-2.89,3.67-10.45,18.16,6.37L599.86,188l-8.42-2.95-.54,1.53,8.42,3Z"/><path class="cls-59" d="M604.61,175.34l-17.24-8.56,9.12-18.38,6.5,3.22-2.18,1.11,6.43,3.19-.54-2.51,7.06,3.5Zm-3.9-22.57-7.93,4.07,8.14,4Zm6.55,3.22-6.15,5,8.15,4Z"/><path class="cls-59" d="M614.92,154.79l-16.08-10.58,6.14-9.33,16.08,10.58ZM622,144.06,605.9,133.48l1.73-2.64c.56-.86,1-1.55,1.4-2.06a10.53,10.53,0,0,1,1-1.25,6.84,6.84,0,0,1,.9-.77,5,5,0,0,1,1.94-.81,4.63,4.63,0,0,1,1.74,0,4.8,4.8,0,0,1,1.63.69,4.62,4.62,0,0,1,2.13,3.12,4.25,4.25,0,0,1,.1,1.08,12.74,12.74,0,0,1-.18,1.42,7.12,7.12,0,0,1,1.05-.72,3.82,3.82,0,0,1,.93-.33,5.11,5.11,0,0,1,4.3.84l3.7,2.42Z"/><path class="cls-59" d="M629.59,133,614.87,120.6l13.23-15.69,5.54,4.67-2.37.57,5.49,4.62.07-2.56,6,5.07Zm1.58-22.85-8.68,2.07,7,5.86Zm5.59,4.68-7.17,3.44,6.95,5.86Z"/><path class="cls-59" d="M646,99.21l-5.61-6.62L657.57,78l5.6,6.6-9.33-2.32,0,0,11.89,14-8.56,7.25-11.89-14,0,0Z"/><path class="cls-59" d="M669.45,69.66,680.3,85.83l-1.25.84a9.29,9.29,0,0,1-4.77,1.61A9.8,9.8,0,0,1,665.56,84a9.79,9.79,0,0,1-1.51-3.64,9,9,0,0,1,.05-3.77A9.74,9.74,0,0,1,665.72,73a11.64,11.64,0,0,1,3-2.88ZM681.69,84.9,670.84,68.73l.83-.55a10.76,10.76,0,0,1,3.72-1.62,10.39,10.39,0,0,1,3.88-.11,9.36,9.36,0,0,1,6.29,4.08,9.73,9.73,0,0,1,1.51,3.6,9.57,9.57,0,0,1,0,3.81,9.37,9.37,0,0,1-1.55,3.53,10.79,10.79,0,0,1-2.91,2.84Z"/><path class="cls-59" d="M706,70.58,694.25,54.71l9-4L712,61.91l.91,5.64Zm11.12-4.86L704.8,50.09l9-4L723.17,57l.94,5.63ZM722.68,54l-7.24-8.52,5.43-2.38Z"/><path class="cls-59" d="M728.42,48.71l.83-8.24,5.63-1.76,13.91,16L736.7,58.46l-5.87-6.91-1.71.54L734.94,59l-7.87,2.46,1.09-10.56,1.67-.52Z"/><path class="cls-59" d="M753.75,35.87l-.41-2,3.94-.82,1.08,5.21L765,41.76a5.56,5.56,0,0,1,3.25,3.76,4.63,4.63,0,0,1-.22,2.8,5.15,5.15,0,0,1-1.91,2.19,7.06,7.06,0,0,1-1.43.76,15,15,0,0,1-2,.58L761,51l.62,3-4,.83-1.27-6.1-4.61-2.26c-2.64-1.29-4.17-3-4.61-5.08a6,6,0,0,1-.08-2.05,4.17,4.17,0,0,1,.64-1.75,5,5,0,0,1,1.38-1.4,7.07,7.07,0,0,1,1.21-.68,13.54,13.54,0,0,1,1.75-.54Zm-3.93,18.64-1.64-7.91,6.72,3.3.71,3.41Zm10-17.35-.67-3.2,5.35-1.11,1.57,7.59Z"/><path class="cls-59" d="M770.82,50.21l-1.89-19.15,11-1.09.85,8.69,1.62-.16-.86-8.68,11-1.09,1.89,19.16L783.4,49l-.87-8.88-1.62.15.88,8.88Z"/><path class="cls-59" d="M809.38,47.69l.77-9.8,5.53,10.29Zm1-12.76.51-6.43,8.74.69,5.1,9.58-7.2,9.41Zm15.17,2.76,5.8-7.59,5.89.46-1.5,19.2-11.06-.87Z"/><path class="cls-59" d="M844,39.41l4.62-6.87,5.8,1.11,4.71,20.64-12.45-2.37-1.9-8.87L843,42.71l1.87,8.86L836.74,50l6-8.8,1.72.33Z"/><path class="cls-59" d="M860.18,43.84l.65-2.77a3.08,3.08,0,0,1-1.68-1.4,2.77,2.77,0,0,1-.28-2.07,3,3,0,0,1,.73-1.4,2.88,2.88,0,0,1,1.3-.77,3.08,3.08,0,0,1,3.48,1.37,3.33,3.33,0,0,1,.29,2.51,5.92,5.92,0,0,1-2.74,3.87,4.19,4.19,0,0,1-.75.4A6.18,6.18,0,0,1,860.18,43.84Z"/><path class="cls-59" d="M875,58.75l6.71-18,10.52,3.91-6.71,18.05ZM887,63.24l6.72-18,1.31.49a9.84,9.84,0,0,1,4.17,3,10,10,0,0,1,2.2,4.6,9,9,0,0,1-.39,4.94,9.38,9.38,0,0,1-2,3.18,9.63,9.63,0,0,1-3.1,2.16,10.26,10.26,0,0,1-3.73.83,9.39,9.39,0,0,1-3.66-.54Z"/><path class="cls-59" d="M907.33,50.76l10.08,4.76-8.22,17.4-10.08-4.76Z"/><path class="cls-59" d="M911.72,74l9.71-16.62L931.07,63l-9.7,16.62Zm11.09,6.48,9.71-16.63,2.72,1.59q1.34.78,2.13,1.29a10.6,10.6,0,0,1,1.31.94,5.85,5.85,0,0,1,.81.86,5,5,0,0,1,.92,1.89,4.43,4.43,0,0,1,.08,1.74,4.79,4.79,0,0,1-.6,1.66,4.59,4.59,0,0,1-3,2.3,3.9,3.9,0,0,1-1.06.16c-.29,0-.77,0-1.44-.1a6.47,6.47,0,0,1,.78,1,3.75,3.75,0,0,1,.39.92,5.14,5.14,0,0,1-.61,4.34l-2.23,3.81Z"/><path class="cls-59" d="M940.15,78.59l5.19-7,18.08,13.48-5.17,6.94.16-9.61,0,0-11,14.75-9-6.7,11-14.75,0,0Z"/><path class="cls-59" d="M962.48,100.16l3.13-13.28L974,94.75l-2.93,12.58-5.53,5.89-8.14-7.65Zm10.41,6.76,2.51-10.85,8.44,7.93Z"/><path class="cls-59" d="M997.75,138.65l-6.81,5.07-6-8.05a9.62,9.62,0,0,1-1.88-4.74,9.88,9.88,0,0,1,.68-5,9.37,9.37,0,0,1,6.59-5.62,9.05,9.05,0,0,1,3.81-.06,10,10,0,0,1,3.63,1.47,11.81,11.81,0,0,1,3,2.89l5.63,7.57-6.75,5L1001,125.4l-14.94,11.12Z"/><path class="cls-59" d="M1004.13,142.79l8.22-1,2.94,5.12-12.57,17-6.32-11,5.48-7.22-.9-1.56-5.49,7.19-4.11-7.14,10.54-1.23.87,1.51Z"/><path class="cls-59" d="M1003,164.86l7.45-3.14-2,7.24-3.21,1.35Zm19.05.27,1.86-.78,1.55,3.71-4.9,2.06-2.12,7.22a5.54,5.54,0,0,1-3.07,3.91,4.57,4.57,0,0,1-2.79.33,5.2,5.2,0,0,1-2.52-1.46,7.38,7.38,0,0,1-1-1.25,16.34,16.34,0,0,1-1-1.83l.48-1.88-2.83,1.19-1.58-3.75,5.74-2.41,1.33-5c.77-2.84,2.13-4.68,4.1-5.5a5.78,5.78,0,0,1,2-.48,4.34,4.34,0,0,1,1.84.29,5,5,0,0,1,1.64,1.09,7.18,7.18,0,0,1,.9,1.05,12.94,12.94,0,0,1,.87,1.62Zm-.09,6.24,3-1.27,2.12,5-7.15,3Z"/><path class="cls-59" d="M1011.25,184.51l18.62-4.9,2.81,10.68-8.44,2.23.42,1.57,8.44-2.23,2.82,10.71-18.62,4.9-2.82-10.73,8.63-2.27-.42-1.57-8.63,2.27Z"/><path class="cls-59" d="M1024.19,216.26a3,3,0,0,1-.55,2.23,2.79,2.79,0,0,1-1.94,1.14,2.83,2.83,0,0,1-2.18-.6,3,3,0,0,1-.57-4.19,2.84,2.84,0,0,1,3.44-1,2.89,2.89,0,0,1,1.21.94A3,3,0,0,1,1024.19,216.26Zm.85-.68,8.17-1.1a4.7,4.7,0,0,0,2-.63,5.58,5.58,0,0,0,.78-.63,10.25,10.25,0,0,0,.73-1,3.53,3.53,0,0,1,.74,1.87,5.51,5.51,0,0,1,0,1.51,8.27,8.27,0,0,1-.45,1.61,6.54,6.54,0,0,1-.83,1.41,5.68,5.68,0,0,1-1.15,1.2,6,6,0,0,1-1.44.82,7,7,0,0,1-1.64.43,5.51,5.51,0,0,1-3.32-.5,7.18,7.18,0,0,1-1.5-1,6.34,6.34,0,0,1-1.19-1.34,6.22,6.22,0,0,1-.71-1.88Q1025.16,216.15,1025,215.58Zm10.92-6.11a3.2,3.2,0,0,1-.06,1.24,3,3,0,0,1-.54,1.09,3.43,3.43,0,0,1-.87.79,3.08,3.08,0,0,1-4.61-2.3,3.05,3.05,0,0,1,.58-2.31,3,3,0,0,1,4.32-.57A3,3,0,0,1,1036,209.47Z"/><g class="cls-60"><ellipse class="cls-61" cx="804" cy="206" rx="133" ry="128"/></g><g class="cls-60"><ellipse class="cls-61" cx="804" cy="206" rx="114.54" ry="110.23"/></g><g class="cls-62"><ellipse class="cls-61" cx="804" cy="206" rx="97.76" ry="94.08"/></g><ellipse class="cls-61" cx="804" cy="206" rx="79.3" ry="76.32"/><polygon class="cls-63" points="991.78 305.5 1006.47 297.77 1003.66 314.14 1015.55 325.73 999.12 328.11 991.78 343 984.43 328.11 968 325.73 979.89 314.14 977.08 297.77 991.78 305.5"/><polygon class="cls-63" points="1089.78 333.5 1104.47 325.77 1101.66 342.14 1113.55 353.73 1097.12 356.11 1089.78 371 1082.43 356.11 1066 353.73 1077.89 342.14 1075.08 325.77 1089.78 333.5"/><polygon class="cls-63" points="484.78 225.5 499.47 217.78 496.67 234.14 508.55 245.72 492.12 248.11 484.78 263 477.43 248.11 461 245.72 472.89 234.14 470.08 217.78 484.78 225.5"/><rect class="cls-64" x="245" y="453.5" width="3" height="30"/><rect class="cls-64" x="226.5" y="467" width="41" height="3"/><polygon class="cls-65" points="539 842 633 701 636 420 539 488 539 842"/><rect class="cls-64" x="-62" y="488" width="601" height="354"/><rect class="cls-66" x="20" y="536" width="25" height="51"/><path class="cls-64" d="M46.5,588.5h-28v-54h28Zm-25-3h22v-48h-22Z"/><rect class="cls-64" x="31" y="536" width="3" height="51"/><rect class="cls-64" x="20" y="550.79" width="25" height="3"/><rect class="cls-64" x="20" y="565.67" width="25" height="3"/><rect class="cls-66" x="85" y="536" width="25" height="51"/><path class="cls-64" d="M111.5,588.5h-28v-54h28Zm-25-3h22v-48h-22Z"/><rect class="cls-64" x="96" y="536" width="3" height="51"/><rect class="cls-64" x="85" y="550.79" width="25" height="3"/><rect class="cls-64" x="85" y="565.67" width="25" height="3"/><rect class="cls-66" x="213" y="536" width="25" height="51"/><path class="cls-64" d="M239.5,588.5h-28v-54h28Zm-25-3h22v-48h-22Z"/><rect class="cls-64" x="224" y="536" width="3" height="51"/><rect class="cls-64" x="213" y="550.79" width="25" height="3"/><rect class="cls-64" x="213" y="565.67" width="25" height="3"/><rect class="cls-66" x="278" y="536" width="25" height="51"/><path class="cls-64" d="M304.5,588.5h-28v-54h28Zm-25-3h22v-48h-22Z"/><rect class="cls-64" x="289" y="536" width="3" height="51"/><rect class="cls-64" x="278" y="550.79" width="25" height="3"/><rect class="cls-64" x="278" y="565.67" width="25" height="3"/><rect class="cls-66" x="148" y="536" width="25" height="51"/><path class="cls-64" d="M174.5,588.5h-28v-54h28Zm-25-3h22v-48h-22Z"/><rect class="cls-64" x="159" y="536" width="3" height="51"/><rect class="cls-64" x="148" y="550.79" width="25" height="3"/><rect class="cls-64" x="148" y="565.67" width="25" height="3"/><rect class="cls-66" x="408" y="536" width="25" height="51"/><path class="cls-64" d="M434.5,588.5h-28v-54h28Zm-25-3h22v-48h-22Z"/><rect class="cls-64" x="419" y="536" width="3" height="51"/><rect class="cls-64" x="408" y="550.79" width="25" height="3"/><rect class="cls-64" x="408" y="565.67" width="25" height="3"/><rect class="cls-66" x="473" y="536" width="25" height="51"/><path class="cls-64" d="M499.5,588.5h-28v-54h28Zm-25-3h22v-48h-22Z"/><rect class="cls-64" x="484" y="536" width="3" height="51"/><rect class="cls-64" x="473" y="550.79" width="25" height="3"/><rect class="cls-64" x="473" y="565.67" width="25" height="3"/><rect class="cls-66" x="343" y="536" width="25" height="51"/><path class="cls-64" d="M369.5,588.5h-28v-54h28Zm-25-3h22v-48h-22Z"/><rect class="cls-64" x="354" y="536" width="3" height="51"/><rect class="cls-64" x="343" y="550.79" width="25" height="3"/><rect class="cls-64" x="343" y="565.67" width="25" height="3"/><rect class="cls-66" x="19" y="614" width="25" height="51"/><path class="cls-64" d="M45.5,666.5h-28v-54h28Zm-25-3h22v-48h-22Z"/><rect class="cls-64" x="30" y="614" width="3" height="51"/><rect class="cls-64" x="19" y="628.79" width="25" height="3"/><rect class="cls-64" x="19" y="643.67" width="25" height="3"/><rect class="cls-66" x="84" y="614" width="25" height="51"/><path class="cls-64" d="M110.5,666.5h-28v-54h28Zm-25-3h22v-48h-22Z"/><rect class="cls-64" x="95" y="614" width="3" height="51"/><rect class="cls-64" x="84" y="628.79" width="25" height="3"/><rect class="cls-64" x="84" y="643.67" width="25" height="3"/><rect class="cls-66" x="212" y="614" width="25" height="51"/><path class="cls-64" d="M238.5,666.5h-28v-54h28Zm-25-3h22v-48h-22Z"/><rect class="cls-64" x="223" y="614" width="3" height="51"/><rect class="cls-64" x="212" y="628.79" width="25" height="3"/><rect class="cls-64" x="212" y="643.67" width="25" height="3"/><rect class="cls-66" x="277" y="614" width="25" height="51"/><path class="cls-64" d="M303.5,666.5h-28v-54h28Zm-25-3h22v-48h-22Z"/><rect class="cls-64" x="288" y="614" width="3" height="51"/><rect class="cls-64" x="277" y="628.79" width="25" height="3"/><rect class="cls-64" x="277" y="643.67" width="25" height="3"/><rect class="cls-66" x="147" y="614" width="25" height="51"/><path class="cls-64" d="M173.5,666.5h-28v-54h28Zm-25-3h22v-48h-22Z"/><rect class="cls-64" x="158" y="614" width="3" height="51"/><rect class="cls-64" x="147" y="628.79" width="25" height="3"/><rect class="cls-64" x="147" y="643.67" width="25" height="3"/><rect class="cls-66" x="407" y="614" width="25" height="51"/><path class="cls-64" d="M433.5,666.5h-28v-54h28Zm-25-3h22v-48h-22Z"/><rect class="cls-64" x="418" y="614" width="3" height="51"/><rect class="cls-64" x="407" y="628.79" width="25" height="3"/><rect class="cls-64" x="407" y="643.67" width="25" height="3"/><rect class="cls-66" x="472" y="614" width="25" height="51"/><path class="cls-64" d="M498.5,666.5h-28v-54h28Zm-25-3h22v-48h-22Z"/><rect class="cls-64" x="483" y="614" width="3" height="51"/><rect class="cls-64" x="472" y="628.79" width="25" height="3"/><rect class="cls-64" x="472" y="643.67" width="25" height="3"/><rect class="cls-66" x="19" y="692" width="25" height="51"/><path class="cls-64" d="M45.5,744.5h-28v-54h28Zm-25-3h22v-48h-22Z"/><rect class="cls-64" x="30" y="692" width="3" height="51"/><rect class="cls-64" x="19" y="706.79" width="25" height="3"/><rect class="cls-64" x="19" y="721.67" width="25" height="3"/><rect class="cls-66" x="84" y="692" width="25" height="51"/><path class="cls-64" d="M110.5,744.5h-28v-54h28Zm-25-3h22v-48h-22Z"/><rect class="cls-64" x="95" y="692" width="3" height="51"/><rect class="cls-64" x="84" y="706.79" width="25" height="3"/><rect class="cls-64" x="84" y="721.67" width="25" height="3"/><rect class="cls-66" x="212" y="692" width="25" height="51"/><path class="cls-64" d="M238.5,744.5h-28v-54h28Zm-25-3h22v-48h-22Z"/><rect class="cls-64" x="223" y="692" width="3" height="51"/><rect class="cls-64" x="212" y="706.79" width="25" height="3"/><rect class="cls-64" x="212" y="721.67" width="25" height="3"/><rect class="cls-66" x="277" y="692" width="25" height="51"/><path class="cls-64" d="M303.5,744.5h-28v-54h28Zm-25-3h22v-48h-22Z"/><rect class="cls-64" x="288" y="692" width="3" height="51"/><rect class="cls-64" x="277" y="706.79" width="25" height="3"/><rect class="cls-64" x="277" y="721.67" width="25" height="3"/><rect class="cls-66" x="147" y="692" width="25" height="51"/><path class="cls-64" d="M173.5,744.5h-28v-54h28Zm-25-3h22v-48h-22Z"/><rect class="cls-64" x="158" y="692" width="3" height="51"/><rect class="cls-64" x="147" y="706.79" width="25" height="3"/><rect class="cls-64" x="147" y="721.67" width="25" height="3"/><rect class="cls-66" x="407" y="692" width="25" height="51"/><path class="cls-64" d="M433.5,744.5h-28v-54h28Zm-25-3h22v-48h-22Z"/><rect class="cls-64" x="418" y="692" width="3" height="51"/><rect class="cls-64" x="407" y="706.79" width="25" height="3"/><rect class="cls-64" x="407" y="721.67" width="25" height="3"/><rect class="cls-66" x="472" y="692" width="25" height="51"/><path class="cls-64" d="M498.5,744.5h-28v-54h28Zm-25-3h22v-48h-22Z"/><rect class="cls-64" x="483" y="692" width="3" height="51"/><rect class="cls-64" x="472" y="706.79" width="25" height="3"/><rect class="cls-64" x="472" y="721.67" width="25" height="3"/><rect class="cls-66" x="342" y="692" width="25" height="51"/><path class="cls-64" d="M368.5,744.5h-28v-54h28Zm-25-3h22v-48h-22Z"/><rect class="cls-64" x="353" y="692" width="3" height="51"/><rect class="cls-64" x="342" y="706.79" width="25" height="3"/><rect class="cls-64" x="342" y="721.67" width="25" height="3"/><polygon points="600 533 587.5 544.5 587.5 519 600 510 600 533"/><polygon points="600 583 587.5 594.5 587.5 569 600 560 600 583"/><path class="cls-67" d="M-63.5,401.5h518l.78-.12h0L569.5,383.5,636,420l-97,68H-64Z"/><polygon class="cls-68" points="638 419 566 379 455 401 539 488 638 419"/><rect class="cls-64" x="191" y="435" width="81" height="64"/><polygon class="cls-64" points="231.5 410 191 435 272 435 231.5 410"/><rect class="cls-66" x="211" y="445" width="41" height="30"/><path class="cls-64" d="M253.5,476.5h-44v-33h44Zm-41-3h38v-27h-38Z"/><rect class="cls-64" x="229.5" y="441" width="3" height="39"/><rect class="cls-64" x="205.5" y="458.5" width="51.01" height="3"/><polygon class="cls-65" points="1068 845 974 704 971 423 1068 491 1068 845"/><rect class="cls-64" x="1068" y="491" width="601" height="354" transform="translate(2737 1336) rotate(-180)"/><rect class="cls-66" x="1562" y="539" width="25" height="51" transform="translate(3149 1129) rotate(-180)"/><path class="cls-64" d="M1588.5,591.5h-28v-54h28Zm-25-3h22v-48h-22Z"/><line class="cls-66" x1="1574.5" y1="539" x2="1574.5" y2="590"/><rect class="cls-64" x="1573" y="539" width="3" height="51"/><line class="cls-66" x1="1587" y1="555.29" x2="1562" y2="555.29"/><rect class="cls-64" x="1562" y="553.79" width="25" height="3"/><line class="cls-66" x1="1587" y1="570.17" x2="1562" y2="570.17"/><rect class="cls-64" x="1562" y="568.67" width="25" height="3"/><rect class="cls-66" x="1497" y="539" width="25" height="51" transform="translate(3019 1129) rotate(-180)"/><path class="cls-64" d="M1523.5,591.5h-28v-54h28Zm-25-3h22v-48h-22Z"/><line class="cls-66" x1="1509.5" y1="539" x2="1509.5" y2="590"/><rect class="cls-64" x="1508" y="539" width="3" height="51"/><line class="cls-66" x1="1522" y1="555.29" x2="1497" y2="555.29"/><rect class="cls-64" x="1497" y="553.79" width="25" height="3"/><line class="cls-66" x1="1522" y1="570.17" x2="1497" y2="570.17"/><rect class="cls-64" x="1497" y="568.67" width="25" height="3"/><rect class="cls-66" x="1369" y="539" width="25" height="51" transform="translate(2763 1129) rotate(-180)"/><path class="cls-64" d="M1395.5,591.5h-28v-54h28Zm-25-3h22v-48h-22Z"/><line class="cls-66" x1="1381.5" y1="539" x2="1381.5" y2="590"/><rect class="cls-64" x="1380" y="539" width="3" height="51"/><line class="cls-66" x1="1394" y1="555.29" x2="1369" y2="555.29"/><rect class="cls-64" x="1369" y="553.79" width="25" height="3"/><line class="cls-66" x1="1394" y1="570.17" x2="1369" y2="570.17"/><rect class="cls-64" x="1369" y="568.67" width="25" height="3"/><rect class="cls-66" x="1304" y="539" width="25" height="51" transform="translate(2633 1129) rotate(-180)"/><path class="cls-64" d="M1330.5,591.5h-28v-54h28Zm-25-3h22v-48h-22Z"/><line class="cls-66" x1="1316.5" y1="539" x2="1316.5" y2="590"/><rect class="cls-64" x="1315" y="539" width="3" height="51"/><line class="cls-66" x1="1329" y1="555.29" x2="1304" y2="555.29"/><rect class="cls-64" x="1304" y="553.79" width="25" height="3"/><line class="cls-66" x1="1329" y1="570.17" x2="1304" y2="570.17"/><rect class="cls-64" x="1304" y="568.67" width="25" height="3"/><rect class="cls-66" x="1434" y="539" width="25" height="51" transform="translate(2893 1129) rotate(-180)"/><path class="cls-64" d="M1460.5,591.5h-28v-54h28Zm-25-3h22v-48h-22Z"/><line class="cls-66" x1="1446.5" y1="539" x2="1446.5" y2="590"/><rect class="cls-64" x="1445" y="539" width="3" height="51"/><line class="cls-66" x1="1459" y1="555.29" x2="1434" y2="555.29"/><rect class="cls-64" x="1434" y="553.79" width="25" height="3"/><line class="cls-66" x1="1459" y1="570.17" x2="1434" y2="570.17"/><rect class="cls-64" x="1434" y="568.67" width="25" height="3"/><rect class="cls-66" x="1174" y="539" width="25" height="51" transform="translate(2373 1129) rotate(-180)"/><path class="cls-64" d="M1200.5,591.5h-28v-54h28Zm-25-3h22v-48h-22Z"/><line class="cls-66" x1="1186.5" y1="539" x2="1186.5" y2="590"/><rect class="cls-64" x="1185" y="539" width="3" height="51"/><line class="cls-66" x1="1199" y1="555.29" x2="1174" y2="555.29"/><rect class="cls-64" x="1174" y="553.79" width="25" height="3"/><line class="cls-66" x1="1199" y1="570.17" x2="1174" y2="570.17"/><rect class="cls-64" x="1174" y="568.67" width="25" height="3"/><rect class="cls-66" x="1109" y="539" width="25" height="51" transform="translate(2243 1129) rotate(-180)"/><path class="cls-64" d="M1135.5,591.5h-28v-54h28Zm-25-3h22v-48h-22Z"/><line class="cls-66" x1="1121.5" y1="539" x2="1121.5" y2="590"/><rect class="cls-64" x="1120" y="539" width="3" height="51"/><line class="cls-66" x1="1134" y1="555.29" x2="1109" y2="555.29"/><rect class="cls-64" x="1109" y="553.79" width="25" height="3"/><line class="cls-66" x1="1134" y1="570.17" x2="1109" y2="570.17"/><rect class="cls-64" x="1109" y="568.67" width="25" height="3"/><rect class="cls-66" x="1239" y="539" width="25" height="51" transform="translate(2503 1129) rotate(-180)"/><path class="cls-64" d="M1265.5,591.5h-28v-54h28Zm-25-3h22v-48h-22Z"/><line class="cls-66" x1="1251.5" y1="539" x2="1251.5" y2="590"/><rect class="cls-64" x="1250" y="539" width="3" height="51"/><line class="cls-66" x1="1264" y1="555.29" x2="1239" y2="555.29"/><rect class="cls-64" x="1239" y="553.79" width="25" height="3"/><line class="cls-66" x1="1264" y1="570.17" x2="1239" y2="570.17"/><rect class="cls-64" x="1239" y="568.67" width="25" height="3"/><rect class="cls-66" x="1563" y="617" width="25" height="51" transform="translate(3151 1285) rotate(-180)"/><path class="cls-64" d="M1589.5,669.5h-28v-54h28Zm-25-3h22v-48h-22Z"/><line class="cls-66" x1="1575.5" y1="617" x2="1575.5" y2="668"/><rect class="cls-64" x="1574" y="617" width="3" height="51"/><line class="cls-66" x1="1588" y1="633.29" x2="1563" y2="633.29"/><rect class="cls-64" x="1563" y="631.79" width="25" height="3"/><line class="cls-66" x1="1588" y1="648.17" x2="1563" y2="648.17"/><rect class="cls-64" x="1563" y="646.67" width="25" height="3"/><rect class="cls-66" x="1498" y="617" width="25" height="51" transform="translate(3021 1285) rotate(-180)"/><path class="cls-64" d="M1524.5,669.5h-28v-54h28Zm-25-3h22v-48h-22Z"/><line class="cls-66" x1="1510.5" y1="617" x2="1510.5" y2="668"/><rect class="cls-64" x="1509" y="617" width="3" height="51"/><line class="cls-66" x1="1523" y1="633.29" x2="1498" y2="633.29"/><rect class="cls-64" x="1498" y="631.79" width="25" height="3"/><line class="cls-66" x1="1523" y1="648.17" x2="1498" y2="648.17"/><rect class="cls-64" x="1498" y="646.67" width="25" height="3"/><rect class="cls-66" x="1370" y="617" width="25" height="51" transform="translate(2765 1285) rotate(-180)"/><path class="cls-64" d="M1396.5,669.5h-28v-54h28Zm-25-3h22v-48h-22Z"/><line class="cls-66" x1="1382.5" y1="617" x2="1382.5" y2="668"/><rect class="cls-64" x="1381" y="617" width="3" height="51"/><line class="cls-66" x1="1395" y1="633.29" x2="1370" y2="633.29"/><rect class="cls-64" x="1370" y="631.79" width="25" height="3"/><line class="cls-66" x1="1395" y1="648.17" x2="1370" y2="648.17"/><rect class="cls-64" x="1370" y="646.67" width="25" height="3"/><rect class="cls-66" x="1305" y="617" width="25" height="51" transform="translate(2635 1285) rotate(-180)"/><path class="cls-64" d="M1331.5,669.5h-28v-54h28Zm-25-3h22v-48h-22Z"/><line class="cls-66" x1="1317.5" y1="617" x2="1317.5" y2="668"/><rect class="cls-64" x="1316" y="617" width="3" height="51"/><line class="cls-66" x1="1330" y1="633.29" x2="1305" y2="633.29"/><rect class="cls-64" x="1305" y="631.79" width="25" height="3"/><line class="cls-66" x1="1330" y1="648.17" x2="1305" y2="648.17"/><rect class="cls-64" x="1305" y="646.67" width="25" height="3"/><rect class="cls-66" x="1435" y="617" width="25" height="51" transform="translate(2895 1285) rotate(-180)"/><path class="cls-64" d="M1461.5,669.5h-28v-54h28Zm-25-3h22v-48h-22Z"/><line class="cls-66" x1="1447.5" y1="617" x2="1447.5" y2="668"/><rect class="cls-64" x="1446" y="617" width="3" height="51"/><line class="cls-66" x1="1460" y1="633.29" x2="1435" y2="633.29"/><rect class="cls-64" x="1435" y="631.79" width="25" height="3"/><line class="cls-66" x1="1460" y1="648.17" x2="1435" y2="648.17"/><rect class="cls-64" x="1435" y="646.67" width="25" height="3"/><rect class="cls-66" x="1175" y="617" width="25" height="51" transform="translate(2375 1285) rotate(-180)"/><path class="cls-64" d="M1201.5,669.5h-28v-54h28Zm-25-3h22v-48h-22Z"/><line class="cls-66" x1="1187.5" y1="617" x2="1187.5" y2="668"/><rect class="cls-64" x="1186" y="617" width="3" height="51"/><line class="cls-66" x1="1200" y1="633.29" x2="1175" y2="633.29"/><rect class="cls-64" x="1175" y="631.79" width="25" height="3"/><line class="cls-66" x1="1200" y1="648.17" x2="1175" y2="648.17"/><rect class="cls-64" x="1175" y="646.67" width="25" height="3"/><rect class="cls-66" x="1110" y="617" width="25" height="51" transform="translate(2245 1285) rotate(-180)"/><path class="cls-64" d="M1136.5,669.5h-28v-54h28Zm-25-3h22v-48h-22Z"/><line class="cls-66" x1="1122.5" y1="617" x2="1122.5" y2="668"/><rect class="cls-64" x="1121" y="617" width="3" height="51"/><line class="cls-66" x1="1135" y1="633.29" x2="1110" y2="633.29"/><rect class="cls-64" x="1110" y="631.79" width="25" height="3"/><line class="cls-66" x1="1135" y1="648.17" x2="1110" y2="648.17"/><rect class="cls-64" x="1110" y="646.67" width="25" height="3"/><rect class="cls-66" x="1240" y="617" width="25" height="51" transform="translate(2505 1285) rotate(-180)"/><path class="cls-64" d="M1266.5,669.5h-28v-54h28Zm-25-3h22v-48h-22Z"/><line class="cls-66" x1="1252.5" y1="617" x2="1252.5" y2="668"/><rect class="cls-64" x="1251" y="617" width="3" height="51"/><line class="cls-66" x1="1265" y1="633.29" x2="1240" y2="633.29"/><rect class="cls-64" x="1240" y="631.79" width="25" height="3"/><line class="cls-66" x1="1265" y1="648.17" x2="1240" y2="648.17"/><rect class="cls-64" x="1240" y="646.67" width="25" height="3"/><rect class="cls-66" x="1563" y="695" width="25" height="51" transform="translate(3151 1441) rotate(-180)"/><path class="cls-64" d="M1589.5,747.5h-28v-54h28Zm-25-3h22v-48h-22Z"/><line class="cls-66" x1="1575.5" y1="695" x2="1575.5" y2="746"/><rect class="cls-64" x="1574" y="695" width="3" height="51"/><line class="cls-66" x1="1588" y1="711.29" x2="1563" y2="711.29"/><rect class="cls-64" x="1563" y="709.79" width="25" height="3"/><line class="cls-66" x1="1588" y1="726.17" x2="1563" y2="726.17"/><rect class="cls-64" x="1563" y="724.67" width="25" height="3"/><rect class="cls-66" x="1498" y="695" width="25" height="51" transform="translate(3021 1441) rotate(-180)"/><path class="cls-64" d="M1524.5,747.5h-28v-54h28Zm-25-3h22v-48h-22Z"/><line class="cls-66" x1="1510.5" y1="695" x2="1510.5" y2="746"/><rect class="cls-64" x="1509" y="695" width="3" height="51"/><line class="cls-66" x1="1523" y1="711.29" x2="1498" y2="711.29"/><rect class="cls-64" x="1498" y="709.79" width="25" height="3"/><line class="cls-66" x1="1523" y1="726.17" x2="1498" y2="726.17"/><rect class="cls-64" x="1498" y="724.67" width="25" height="3"/><rect class="cls-66" x="1370" y="695" width="25" height="51" transform="translate(2765 1441) rotate(-180)"/><path class="cls-64" d="M1396.5,747.5h-28v-54h28Zm-25-3h22v-48h-22Z"/><line class="cls-66" x1="1382.5" y1="695" x2="1382.5" y2="746"/><rect class="cls-64" x="1381" y="695" width="3" height="51"/><line class="cls-66" x1="1395" y1="711.29" x2="1370" y2="711.29"/><rect class="cls-64" x="1370" y="709.79" width="25" height="3"/><line class="cls-66" x1="1395" y1="726.17" x2="1370" y2="726.17"/><rect class="cls-64" x="1370" y="724.67" width="25" height="3"/><rect class="cls-66" x="1305" y="695" width="25" height="51" transform="translate(2635 1441) rotate(-180)"/><path class="cls-64" d="M1331.5,747.5h-28v-54h28Zm-25-3h22v-48h-22Z"/><line class="cls-66" x1="1317.5" y1="695" x2="1317.5" y2="746"/><rect class="cls-64" x="1316" y="695" width="3" height="51"/><line class="cls-66" x1="1330" y1="711.29" x2="1305" y2="711.29"/><rect class="cls-64" x="1305" y="709.79" width="25" height="3"/><line class="cls-66" x1="1330" y1="726.17" x2="1305" y2="726.17"/><rect class="cls-64" x="1305" y="724.67" width="25" height="3"/><rect class="cls-66" x="1435" y="695" width="25" height="51" transform="translate(2895 1441) rotate(-180)"/><path class="cls-64" d="M1461.5,747.5h-28v-54h28Zm-25-3h22v-48h-22Z"/><line class="cls-66" x1="1447.5" y1="695" x2="1447.5" y2="746"/><rect class="cls-64" x="1446" y="695" width="3" height="51"/><line class="cls-66" x1="1460" y1="711.29" x2="1435" y2="711.29"/><rect class="cls-64" x="1435" y="709.79" width="25" height="3"/><line class="cls-66" x1="1460" y1="726.17" x2="1435" y2="726.17"/><rect class="cls-64" x="1435" y="724.67" width="25" height="3"/><rect class="cls-66" x="1175" y="695" width="25" height="51" transform="translate(2375 1441) rotate(-180)"/><path class="cls-64" d="M1201.5,747.5h-28v-54h28Zm-25-3h22v-48h-22Z"/><line class="cls-66" x1="1187.5" y1="695" x2="1187.5" y2="746"/><rect class="cls-64" x="1186" y="695" width="3" height="51"/><line class="cls-66" x1="1200" y1="711.29" x2="1175" y2="711.29"/><rect class="cls-64" x="1175" y="709.79" width="25" height="3"/><line class="cls-66" x1="1200" y1="726.17" x2="1175" y2="726.17"/><rect class="cls-64" x="1175" y="724.67" width="25" height="3"/><rect class="cls-66" x="1110" y="695" width="25" height="51" transform="translate(2245 1441) rotate(-180)"/><path class="cls-64" d="M1136.5,747.5h-28v-54h28Zm-25-3h22v-48h-22Z"/><line class="cls-66" x1="1122.5" y1="695" x2="1122.5" y2="746"/><rect class="cls-64" x="1121" y="695" width="3" height="51"/><line class="cls-66" x1="1135" y1="711.29" x2="1110" y2="711.29"/><rect class="cls-64" x="1110" y="709.79" width="25" height="3"/><line class="cls-66" x1="1135" y1="726.17" x2="1110" y2="726.17"/><rect class="cls-64" x="1110" y="724.67" width="25" height="3"/><rect class="cls-66" x="1240" y="695" width="25" height="51" transform="translate(2505 1441) rotate(-180)"/><path class="cls-64" d="M1266.5,747.5h-28v-54h28Zm-25-3h22v-48h-22Z"/><line class="cls-66" x1="1252.5" y1="695" x2="1252.5" y2="746"/><rect class="cls-64" x="1251" y="695" width="3" height="51"/><line class="cls-66" x1="1265" y1="711.29" x2="1240" y2="711.29"/><rect class="cls-64" x="1240" y="709.79" width="25" height="3"/><line class="cls-66" x1="1265" y1="726.17" x2="1240" y2="726.17"/><rect class="cls-64" x="1240" y="724.67" width="25" height="3"/><polygon points="1007 536 1019.5 547.5 1019.5 522 1007 513 1007 536"/><polygon points="1007 586 1019.5 597.5 1019.5 572 1007 563 1007 586"/><path class="cls-67" d="M1670.5,404.5h-518l-.78-.12h0L1037.5,386.5,971,423l97,68h603Z"/><rect class="cls-64" x="1335" y="438" width="81" height="64" transform="translate(2751 940) rotate(-180)"/><polygon class="cls-64" points="1375.5 413 1416 438 1335 438 1375.5 413"/><rect class="cls-66" x="1355" y="448" width="41" height="30" transform="translate(2751 926) rotate(-180)"/><path class="cls-64" d="M1397.5,479.5h-44v-33h44Zm-41-3h38v-27h-38Z"/><line class="cls-64" x1="1376" y1="444" x2="1376" y2="483"/><rect class="cls-64" x="1374.5" y="444" width="3" height="39"/><line class="cls-64" x1="1401.5" y1="463" x2="1350.5" y2="463"/><rect class="cls-64" x="1350.5" y="461.5" width="51.01" height="3"/><path d="M948.34,708.87H654.51v-92.1H948.34Zm-292.83-1H947.34v-90.1H655.51Z"/><rect class="cls-69" x="633" y="475.87" width="340.06" height="234.13"/><rect class="cls-70" x="654.76" y="617.54" width="293.06" height="90.97" rx="6.27" ry="6.27"/><rect class="cls-71" x="673.62" y="475.13" width="15.96" height="141.67"/><rect class="cls-71" x="766.47" y="475.13" width="15.96" height="141.67"/><rect class="cls-71" x="815.8" y="475.13" width="15.96" height="141.67"/><rect class="cls-71" x="863.68" y="475.13" width="15.96" height="141.67"/><rect class="cls-71" x="910.11" y="475.13" width="15.96" height="141.67"/><rect class="cls-71" x="720.05" y="475.13" width="15.96" height="141.67"/><polygon class="cls-72" points="803.05 349.66 633.05 437.77 642.65 437.77 642.65 475.87 963.48 475.87 963.48 437.77 973.05 437.77 803.05 349.66"/><rect class="cls-73" x="691.76" y="637.67" width="15.96" height="46.23"/><rect class="cls-73" x="738.18" y="637.67" width="15.96" height="46.23"/><rect class="cls-73" x="788.96" y="637.67" width="15.96" height="46.23"/><rect class="cls-74" x="838.29" y="637.67" width="15.96" height="46.23"/><rect class="cls-73" x="884.72" y="637.67" width="15.96" height="46.23"/><ellipse class="cls-75" cx="832.19" cy="406.27" rx="2.93" ry="1.61" transform="translate(-89.81 492.96) rotate(-31.39)"/><rect class="cls-76" x="636.66" y="432.32" width="183.56" height="53.27" rx="4.36" ry="4.36"/><rect class="cls-77" x="828.27" y="433.99" width="106.27" height="49.94" rx="4.24" ry="4.24"/><path class="cls-76" d="M930.3,484.93H832.5a5.24,5.24,0,0,1-5.23-5.24V438.22A5.24,5.24,0,0,1,832.5,433h97.8a5.24,5.24,0,0,1,5.24,5.23v41.47A5.25,5.25,0,0,1,930.3,484.93ZM832.5,435a3.23,3.23,0,0,0-3.23,3.23v41.47a3.24,3.24,0,0,0,3.23,3.24h97.8a3.24,3.24,0,0,0,3.24-3.24V438.22A3.24,3.24,0,0,0,930.3,435Z"/><path class="cls-78" d="M668.21,470V451.79h13V470Zm14.95,0V451.79h1.63a13.28,13.28,0,0,1,5.73,1.25,10.8,10.8,0,0,1,4.27,3.37,7.31,7.31,0,0,1,.72,8,9.37,9.37,0,0,1-2.5,3,12.47,12.47,0,0,1-3.73,2,13,13,0,0,1-4.2.73Z"/><path class="cls-78" d="M706.58,461.77V470h-3.07a7.35,7.35,0,0,1-2.24-.32,5.6,5.6,0,0,1-1.8-.88,3.86,3.86,0,0,1-1.16-1.32,3.49,3.49,0,0,1-.4-1.67,3.61,3.61,0,0,1,1.15-2.66,5.84,5.84,0,0,1,1.47-1.09,6.33,6.33,0,0,0,1.43.63,5.25,5.25,0,0,0,1.44.18,5.2,5.2,0,0,0,1.68-.26A5.41,5.41,0,0,0,706.58,461.77Zm-3.3-5.19a4,4,0,0,1,1.7.36,3.21,3.21,0,0,1,1.24,1,2.28,2.28,0,0,1,.45,1.38,2.24,2.24,0,0,1-.45,1.38,3.07,3.07,0,0,1-1.24,1,4,4,0,0,1-3.38,0,3,3,0,0,1-1.24-1,2.21,2.21,0,0,1-.45-1.35,2.28,2.28,0,0,1,.45-1.35,2.92,2.92,0,0,1,1.24-1A4,4,0,0,1,703.28,456.58ZM708.53,470V456.56h1.8a11.65,11.65,0,0,1,4.12.62,4.79,4.79,0,0,1,2.45,1.91,6.13,6.13,0,0,1,.8,3.24V470Z"/><path class="cls-78" d="M720.74,470V456.65h9.06V470Zm11,0V456.65h2.5a10.68,10.68,0,0,1,3.53.54,5.25,5.25,0,0,1,2.34,1.58,3.76,3.76,0,0,1,.8,2.36V470Z"/><path class="cls-78" d="M751,466.79l-3.15-.91a7.21,7.21,0,0,1-3.31-1.83,3.85,3.85,0,0,1-.32-5.24,5.83,5.83,0,0,1,2.35-1.77,8.3,8.3,0,0,1,3.28-.63,5,5,0,0,1,.56,0,3.82,3.82,0,0,0-.57.69,1.17,1.17,0,0,0-.13.57c0,.9.95,1.66,2.86,2.28l2,.64a11.23,11.23,0,0,1,2.73,1.26,5.44,5.44,0,0,1,1.64,1.64,3.81,3.81,0,0,1,.56,2,3.88,3.88,0,0,1-.73,2.3,5.22,5.22,0,0,1-2,1.66,6.62,6.62,0,0,1-2.84.61c-.42,0-.95,0-1.57-.07a1.94,1.94,0,0,0,.8-1.38C753.16,467.83,752.44,467.21,751,466.79Zm-4.65-.68a3,3,0,0,1,1.28.28,2.28,2.28,0,0,1,.94.75,1.75,1.75,0,0,1,.35,1,1.73,1.73,0,0,1-.34,1,2.26,2.26,0,0,1-1,.76,3,3,0,0,1-1.28.28A3,3,0,0,1,745,470a2.2,2.2,0,0,1-.95-.76,1.71,1.71,0,0,1,0-2.07,2.31,2.31,0,0,1,.95-.75A3,3,0,0,1,746.35,466.11Zm9.7-9.89a3.05,3.05,0,0,1,1.31.28,2.33,2.33,0,0,1,.95.76,1.77,1.77,0,0,1,.34,1,1.72,1.72,0,0,1-.33,1,2.41,2.41,0,0,1-1,.76,3.1,3.1,0,0,1-1.32.29,2.71,2.71,0,0,1-1.8-.61,1.78,1.78,0,0,1,0-2.93A2.74,2.74,0,0,1,756.05,456.22Z"/><path class="cls-78" d="M761.75,470V451.9h9v12.55l6.14-4.25L785,470H774.55l-3.74-5.16h-.06V470Zm15.17-9.86-2.84-3.53h8Z"/><path class="cls-78" d="M804.62,465l.87.32a9.54,9.54,0,0,1-.75,1.43,5.3,5.3,0,0,1-1,1,7.3,7.3,0,0,1-2.72,1.6,16,16,0,0,1-5.1.73,19.62,19.62,0,0,1-3.11-.23,11.24,11.24,0,0,1-2.48-.69,7.3,7.3,0,0,1-2-1.19,6.7,6.7,0,0,1-1.76-2.18,5.71,5.71,0,0,1-.61-2.59,5.5,5.5,0,0,1,.67-2.66,6.73,6.73,0,0,1,1.87-2.2,9.1,9.1,0,0,1,2.76-1.46,11.06,11.06,0,0,1,3.38-.51h.34v12.88c.75.05,1.28.07,1.6.07a9.29,9.29,0,0,0,5.8-1.66,6.5,6.5,0,0,0,1.16-1.08A12.89,12.89,0,0,0,804.62,465Zm1.29-1.83H797v-6.78c.82,0,1.52.11,2.1.19a7.54,7.54,0,0,1,1.55.41,8.44,8.44,0,0,1,2.86,1.54,6.92,6.92,0,0,1,1.48,1.62,4.83,4.83,0,0,1,.8,1.77A10.72,10.72,0,0,1,805.91,463.19Z"/><path class="cls-76" d="M835.61,469.49V451.77h12.11v17.72Zm13.95,0V451.77h6a11.88,11.88,0,0,1,2.91.28,5.27,5.27,0,0,1,2,1,4.38,4.38,0,0,1,1.23,1.47,4,4,0,0,1,.43,1.79,3.84,3.84,0,0,1-1.74,3.27,5.61,5.61,0,0,1-1,.57,11,11,0,0,1-1.54.49v.05a15,15,0,0,1,1.52.5,5.63,5.63,0,0,1,1,.6,4.09,4.09,0,0,1,1.82,3.41,3.37,3.37,0,0,1-.42,1.65,4.45,4.45,0,0,1-1.16,1.38,5.19,5.19,0,0,1-1.69.93,5.9,5.9,0,0,1-2,.34Z"/><path class="cls-76" d="M872,461.45v8h-2.88a6.81,6.81,0,0,1-2.11-.31,5.07,5.07,0,0,1-1.69-.86,3.61,3.61,0,0,1-1.08-1.28,3.29,3.29,0,0,1-.38-1.62,3.55,3.55,0,0,1,1.08-2.58,5.19,5.19,0,0,1,1.38-1.06,5.52,5.52,0,0,0,1.34.61,5.06,5.06,0,0,0,2.94-.08A4.78,4.78,0,0,0,872,461.45Zm-3.1-5a3.78,3.78,0,0,1,1.6.35,2.88,2.88,0,0,1,1.16,1,2.29,2.29,0,0,1,.42,1.34,2.25,2.25,0,0,1-.42,1.34,3,3,0,0,1-1.16,1,3.69,3.69,0,0,1-3.18,0,2.91,2.91,0,0,1-1.16-1,2.25,2.25,0,0,1-.42-1.32,2.29,2.29,0,0,1,.42-1.31,2.76,2.76,0,0,1,1.16-1A3.65,3.65,0,0,1,868.92,456.42Zm4.93,13.07V456.4h1.69a10.77,10.77,0,0,1,3.87.6,4.5,4.5,0,0,1,2.3,1.86,6,6,0,0,1,.76,3.14v7.49Z"/><path class="cls-76" d="M885.32,469.49v-13h8.51v13Zm10.31,0v-13H898a9.5,9.5,0,0,1,3.31.53,4.93,4.93,0,0,1,2.2,1.52,3.73,3.73,0,0,1,.75,2.3v8.65Z"/><path class="cls-76" d="M907.38,469.49V451.88h8.48v12.18l5.77-4.12,7.61,9.55h-9.83l-3.52-5h-.06v5Zm14.25-9.57L919,456.49h7.54Z"/><path class="cls-79" d="M974.32,504.65l-151-65a5.79,5.79,0,0,1-3.16-8.06l9.74-18.3a7.06,7.06,0,0,1,9-2.84l151,65A5.8,5.8,0,0,1,993,483.5l-9.75,18.31A7.06,7.06,0,0,1,974.32,504.65Z"/><path class="cls-80" d="M841.76,442l2.2-18.33,10.52,4.53-1.79,15.13L850,445.54Zm12.74-.15,1.48-13,9.27,4Z"/><path class="cls-80" d="M864.2,439.85l6.1-5,5.08,2.19L874.3,456l-10.91-4.7.57-8.11-1.54-.66-.61,8.1-7.1-3.06,7.83-6.39,1.51.64Z"/><path class="cls-80" d="M875.45,456.49l3.49-6.56,5.49,10.42Zm14-13.12,5.36,10.77a6.94,6.94,0,0,1,.84,2.67,4.51,4.51,0,0,1-.56,2.36,5.28,5.28,0,0,1-2.23,2.21,6.07,6.07,0,0,1-3.22.72,5.54,5.54,0,0,1-.82-.08,8.7,8.7,0,0,1-.88-.22l-1.14-.42c-.75-1.25-1.29-2.13-1.6-2.66s-.68-1.16-1.11-1.89c-.68-1.2-1.31-2.41-1.89-3.64a23.09,23.09,0,0,1-1.27-3,6.94,6.94,0,0,1-.42-2,5.43,5.43,0,0,1,2.84-4.86,6.23,6.23,0,0,1,3.24-.69,6.75,6.75,0,0,1,1.32.21A12.47,12.47,0,0,1,889.47,443.37Zm7.12,10.75-4.93-9.93,8.31,3.57Z"/><path class="cls-80" d="M894,464.46l8.35-15.69,9.53,4.11-4.73,8.9,8.39-2.15,2.56,15.2-10.17-4.38-1-8.34,0,0-3.44,6.45Zm21.54-4.83-.88-5.56,8.2,3.53-.08.19Z"/><path class="cls-80" d="M919.44,475.41l8.34-15.68,17.67,7.6-3.14,5.91-1.06-1.91-3.11,5.85,2.42-.56L937.15,483Zm18.63,1.79-4.82-5.35-4,7.41Zm3.15-5.95-3.89-7-3.94,7.41Z"/><path class="cls-80" d="M939.67,484.12,948,468.44l9.62,4.14-8.34,15.68Zm11.06,4.76,8.34-15.68,2.72,1.17c.88.38,1.59.7,2.13.95a9,9,0,0,1,1.3.72,5,5,0,0,1,.84.69,4.27,4.27,0,0,1,1,1.6,4,4,0,0,1,.18,1.55,4.26,4.26,0,0,1-.48,1.53,4.65,4.65,0,0,1-2.75,2.32,5.18,5.18,0,0,1-1,.23c-.28,0-.74,0-1.39,0a5.45,5.45,0,0,1,.81.83,2.94,2.94,0,0,1,.42.78,4.29,4.29,0,0,1-.32,3.92l-1.92,3.6Z"/><path class="cls-80" d="M971.07,478.36l9.6,4.13-8.34,15.68-9.6-4.13Z"/><ellipse class="cls-75" cx="813.93" cy="436.97" rx="1.71" ry="2.77" transform="translate(-108.38 384.24) rotate(-24.96)"/><polygon class="cls-75" points="825.74 435.14 814.43 436.35 814.62 437.36 825.74 435.14"/><ellipse class="cls-75" cx="979.4" cy="511.88" rx="2.77" ry="1.71" transform="translate(-123.47 582.05) rotate(-31.23)"/><polygon class="cls-75" points="976.28 500.34 978.73 511.45 979.71 511.15 976.28 500.34"/><ellipse class="cls-75" cx="995.86" cy="479.13" rx="1.71" ry="2.77" transform="translate(-108.56 518.65) rotate(-27.74)"/><polygon class="cls-75" points="984.15 481.54 995.39 479.78 995.15 478.78 984.15 481.54"/><polygon class="cls-75" points="837.48 415.94 833 406.52 831.98 406.97 837.48 415.94"/></g></g></svg>
