<svg xmlns="http://www.w3.org/2000/svg" width="250" height="173.01" viewBox="0 0 250 173.01"><defs><style>.cls-1{fill:#447eb7;}.cls-2{fill:#8c92b5;}.cls-3{fill:#919bc6;}</style></defs><title>tid</title><g id="Layer_6" data-name="Layer 6"><path class="cls-1" d="M244.9,45q.34,5.25.24,10.62A120,120,0,1,1,5.19,50.46"/><circle class="cls-2" cx="17" cy="55" r="14"/><circle class="cls-3" cx="40" cy="41" r="14"/><circle class="cls-2" cx="48" cy="51" r="14"/><circle class="cls-2" cx="72" cy="53" r="14"/><circle class="cls-2" cx="67" cy="27" r="9"/><circle class="cls-2" cx="98" cy="9" r="9"/><circle class="cls-2" cx="200" cy="39" r="9"/><circle class="cls-2" cx="135" cy="39" r="9"/><circle class="cls-2" cx="86" cy="62" r="14"/><circle class="cls-3" cx="91" cy="48" r="14"/><circle class="cls-2" cx="103" cy="59" r="14"/><circle class="cls-2" cx="117" cy="37" r="14"/><circle class="cls-2" cx="135" cy="53" r="14"/><circle class="cls-3" cx="154" cy="37" r="14"/><circle class="cls-2" cx="154" cy="62" r="14"/><circle class="cls-2" cx="168" cy="65" r="14"/><circle class="cls-3" cx="185" cy="31" r="14"/><circle class="cls-2" cx="182" cy="45" r="14"/><circle class="cls-2" cx="166" cy="55" r="14"/><circle class="cls-3" cx="196" cy="59" r="14"/><circle class="cls-2" cx="213" cy="45" r="14"/><circle class="cls-2" cx="233" cy="53" r="14"/></g></svg>
