<svg xmlns="http://www.w3.org/2000/svg" width="752" height="447" viewBox="0 0 752 447"><defs><style>.cls-1{fill:#eae16a;}.cls-2{fill:#303030;}.cls-3{fill:#718e79;}</style></defs><title>vind</title><g id="Layer_7" data-name="Layer 7"><rect class="cls-1" width="752" height="447" rx="120.99" ry="120.99"/><path class="cls-2" d="M185.07,96.8V77h40.87V96.74l-10.18-17.8h-.09v42H195.34v-42h-.09Z"/><path class="cls-2" d="M236.79,76.71A9.94,9.94,0,0,1,242.28,78a4.1,4.1,0,0,1,2.06,3.57,3.51,3.51,0,0,1-.92,2.37,5.9,5.9,0,0,1-2.54,1.64,10,10,0,0,1-3.66.62A9.09,9.09,0,0,1,232.1,85,4.16,4.16,0,0,1,232,78,8.09,8.09,0,0,1,236.79,76.71Zm-6.54,44.23V88.69h14.23v32.25Z"/><path class="cls-2" d="M249.85,120.94V77.26h14.22v43.68Z"/><path class="cls-2" d="M269.49,120.94V77.26h14.22v43.68Z"/><path class="cls-2" d="M299.26,116.48l-12.2-27.79h15.46L314,114.44q-.76,1.95-1.65,4c-.6,1.35-1.1,2.4-1.52,3.15-.58,1-1.11,1.87-1.57,2.56a21.07,21.07,0,0,1-1.37,1.78,23.8,23.8,0,0,1-1.89,1.87,11,11,0,0,0,.58-3.31,9.54,9.54,0,0,0-.85-4,8.13,8.13,0,0,0-2.31-2.95,5.12,5.12,0,0,0-3.17-1.09C300,116.42,299.65,116.44,299.26,116.48Zm1,2.23a3.81,3.81,0,0,1,2.29.75,5.92,5.92,0,0,1,1.66,2.09,6.66,6.66,0,0,1,.61,2.87,6.53,6.53,0,0,1-.61,2.87,5.39,5.39,0,0,1-1.68,2,3.79,3.79,0,0,1-2.27.75,3.9,3.9,0,0,1-2.3-.75,5.13,5.13,0,0,1-1.68-2,6.85,6.85,0,0,1,0-5.74,5.55,5.55,0,0,1,1.66-2.09A3.94,3.94,0,0,1,300.23,118.71Zm15.59-7.86L306,88.69h20.11Z"/><path class="cls-2" d="M328.9,120.94V77.26H343v30.21l9.57-10.22,12.65,23.69H348.87L343,108.51h-.09v12.43Zm23.66-23.75-4.43-8.5h12.52Z"/><path class="cls-2" d="M368.2,120.94V77.26h14.09v30.21l9.57-10.22,12.65,23.69H388.17l-5.84-12.43h-.09v12.43Zm23.66-23.75-4.43-8.5H400Z"/><path class="cls-2" d="M435.07,108.84l1.37.78a28.14,28.14,0,0,1-1.17,3.43,12.78,12.78,0,0,1-1.48,2.51,11.65,11.65,0,0,1-4.25,3.84,16.84,16.84,0,0,1-8,1.76,19.72,19.72,0,0,1-4.86-.56,12.85,12.85,0,0,1-3.86-1.64,12,12,0,0,1-3.1-2.87,17,17,0,0,1-2.74-5.24,20.1,20.1,0,0,1-.95-6.25,19.62,19.62,0,0,1,1-6.41A16.78,16.78,0,0,1,410,92.9a13.45,13.45,0,0,1,4.31-3.51,11.78,11.78,0,0,1,5.26-1.23h.54v31c1.17.11,2,.17,2.49.17a11.25,11.25,0,0,0,9.06-4,14.16,14.16,0,0,0,1.8-2.59A32.16,32.16,0,0,0,435.07,108.84Zm2-4.4H423.16V88.1a25.82,25.82,0,0,1,3.28.48,8.24,8.24,0,0,1,2.41,1,13.2,13.2,0,0,1,4.47,3.71,16.88,16.88,0,0,1,2.31,3.9,15.21,15.21,0,0,1,1.24,4.27C437,102.23,437.05,103.23,437.09,104.44Z"/><path class="cls-2" d="M446.12,105.16h-3l-2.54-12.35c-.43-2.21-.79-4.2-1.08-6a29.84,29.84,0,0,1-.47-3.65,6.83,6.83,0,0,1,1.6-4.57,4.9,4.9,0,0,1,3.88-1.87,4.72,4.72,0,0,1,2.77.87A5.56,5.56,0,0,1,449.2,80a8.3,8.3,0,0,1,.7,3.51,22.24,22.24,0,0,1-.54,4l0,.33-.05.37Zm-1.43,2.2a5.08,5.08,0,0,1,4,2,7.3,7.3,0,0,1,1.64,4.85,7.09,7.09,0,0,1-1.64,4.71,5.08,5.08,0,0,1-4,2A4.52,4.52,0,0,1,442,120a6.29,6.29,0,0,1-2-2.48,7.39,7.39,0,0,1-.77-3.34,7.26,7.26,0,0,1,1.62-4.8A4.9,4.9,0,0,1,444.69,107.36Z"/><path class="cls-2" d="M187.14,206.92l2.47-7.31h4.5l6.48,18.62h-9.65l-2.7-8h-1.37l2.67,8h-6.29l3.2-9.36h1.33Z"/><path class="cls-2" d="M201.84,218.23V199.87h6v18.36Z"/><path class="cls-2" d="M210.1,218.23V199.87h6v18.36Z"/><path class="cls-2" d="M229.93,213.15l.57.32a10.64,10.64,0,0,1-.49,1.44,4.8,4.8,0,0,1-.62,1.06,4.85,4.85,0,0,1-1.79,1.62,7.07,7.07,0,0,1-3.34.73,8.06,8.06,0,0,1-2-.23,5.6,5.6,0,0,1-1.63-.69,5.11,5.11,0,0,1-1.3-1.21,7.1,7.1,0,0,1-1.15-2.2,8.28,8.28,0,0,1-.4-2.63,8.2,8.2,0,0,1,.43-2.69,7,7,0,0,1,1.23-2.23,5.79,5.79,0,0,1,1.82-1.47,4.85,4.85,0,0,1,2.21-.52h.22v13c.5,0,.85.07,1,.07a4.74,4.74,0,0,0,3.81-1.68,6.57,6.57,0,0,0,.76-1.09A16,16,0,0,0,229.93,213.15Zm.85-1.86h-5.86v-6.86a8.9,8.9,0,0,1,1.38.2,3.12,3.12,0,0,1,1,.41,5.43,5.43,0,0,1,1.88,1.55,7.1,7.1,0,0,1,1,1.64,6.24,6.24,0,0,1,.52,1.8A12.17,12.17,0,0,1,230.78,211.29Z"/><path class="cls-2" d="M247.79,204.6v13.61h-.37a7.64,7.64,0,0,1-1.24-.08,4,4,0,0,1-1.06-.36,5,5,0,0,1-1.86-1.39,6.47,6.47,0,0,1-1.22-2.22,8.4,8.4,0,0,1-.42-2.7,7.94,7.94,0,0,1,.92-3.78A5.75,5.75,0,0,1,245,205.2a4.92,4.92,0,0,1,2.14-.57l.13,0h.56ZM249,218.23V199.87h6v18.36Z"/><path class="cls-2" d="M260,199.63a4.16,4.16,0,0,1,2.31.57,1.7,1.7,0,0,1,.87,1.5,1.46,1.46,0,0,1-.39,1,2.48,2.48,0,0,1-1.07.69,4,4,0,0,1-1.54.26,3.78,3.78,0,0,1-2.15-.54,1.69,1.69,0,0,1-.82-1.47,1.74,1.74,0,0,1,.77-1.45A3.47,3.47,0,0,1,260,199.63Zm-2.75,18.6V204.67h6v13.56Z"/><path class="cls-2" d="M265.41,218.23V204.67h5.94v13.56Zm7.19,0V204.67h1.65a4.87,4.87,0,0,1,2.31.55,3.87,3.87,0,0,1,1.53,1.6,5.1,5.1,0,0,1,.53,2.39v9Z"/><path class="cls-2" d="M292.4,213.15l.57.32a10.64,10.64,0,0,1-.49,1.44,4.8,4.8,0,0,1-.62,1.06,4.85,4.85,0,0,1-1.79,1.62,7.07,7.07,0,0,1-3.34.73,8.06,8.06,0,0,1-2-.23,5.6,5.6,0,0,1-1.63-.69,5.11,5.11,0,0,1-1.3-1.21,7.1,7.1,0,0,1-1.15-2.2,8.28,8.28,0,0,1-.4-2.63,8,8,0,0,1,.44-2.69,6.79,6.79,0,0,1,1.22-2.23,5.79,5.79,0,0,1,1.82-1.47,4.85,4.85,0,0,1,2.21-.52h.22v13c.5,0,.85.07,1.05.07a4.74,4.74,0,0,0,3.81-1.68,6.57,6.57,0,0,0,.76-1.09A16,16,0,0,0,292.4,213.15Zm.85-1.86h-5.86v-6.86a8.9,8.9,0,0,1,1.38.2,3.12,3.12,0,0,1,1,.41,5.43,5.43,0,0,1,1.88,1.55,7.1,7.1,0,0,1,1,1.64,6.24,6.24,0,0,1,.52,1.8A12.17,12.17,0,0,1,293.25,211.29Z"/><path class="cls-2" d="M304.59,221.92V204.67h5.94v17.25Zm7.21-3.62V204.67h.35a5.33,5.33,0,0,1,3,.9,6.11,6.11,0,0,1,2.14,2.48,7.63,7.63,0,0,1,.78,3.47,8.69,8.69,0,0,1-.41,2.73,6.64,6.64,0,0,1-1.16,2.15,5.08,5.08,0,0,1-1.81,1.42,5.15,5.15,0,0,1-2.29.5h-.59Z"/><path class="cls-2" d="M331.29,213.15l.57.32a10.64,10.64,0,0,1-.49,1.44,5.23,5.23,0,0,1-.62,1.06,4.93,4.93,0,0,1-1.79,1.62,7.07,7.07,0,0,1-3.34.73,8.06,8.06,0,0,1-2-.23,5.6,5.6,0,0,1-1.63-.69,5.11,5.11,0,0,1-1.3-1.21,6.9,6.9,0,0,1-1.15-2.2,8.28,8.28,0,0,1-.4-2.63,8.2,8.2,0,0,1,.43-2.69,7,7,0,0,1,1.23-2.23,5.68,5.68,0,0,1,1.82-1.47,4.82,4.82,0,0,1,2.21-.52H325v13c.49,0,.84.07,1.05.07a4.74,4.74,0,0,0,3.81-1.68,5.93,5.93,0,0,0,.75-1.09A13.76,13.76,0,0,0,331.29,213.15Zm.85-1.86h-5.86v-6.86a9.28,9.28,0,0,1,1.38.2,3.21,3.21,0,0,1,1,.41,5.43,5.43,0,0,1,1.88,1.55,7.1,7.1,0,0,1,1,1.64A6.24,6.24,0,0,1,332,210,12.17,12.17,0,0,1,332.14,211.29Z"/><path class="cls-2" d="M333.72,218.23V204.67h5.95v13.56Zm7.2,0V204.67h1.65a4.87,4.87,0,0,1,2.31.55,3.87,3.87,0,0,1,1.53,1.6,5.1,5.1,0,0,1,.53,2.39v9Z"/><path class="cls-2" d="M354.74,204.53v13.72h-.66a4.62,4.62,0,0,1-2.77-.93,6.39,6.39,0,0,1-2-2.51,7.72,7.72,0,0,1-.76-3.42,8.58,8.58,0,0,1,.42-2.73,6.44,6.44,0,0,1,1.2-2.19A5.38,5.38,0,0,1,352,205a5,5,0,0,1,2.28-.51ZM356,221.9V204.56h6v11.13a13.5,13.5,0,0,1-.15,2.11,6.34,6.34,0,0,1-.44,1.59,3.77,3.77,0,0,1-.79,1.16,4.47,4.47,0,0,1-1.2.82,6.42,6.42,0,0,1-2.71.53Z"/><path class="cls-2" d="M375.82,213.15l.58.32a12.26,12.26,0,0,1-.49,1.44,5.74,5.74,0,0,1-.62,1.06,4.93,4.93,0,0,1-1.79,1.62,7.1,7.1,0,0,1-3.34.73,8.19,8.19,0,0,1-2.05-.23,5.66,5.66,0,0,1-1.62-.69,5,5,0,0,1-1.3-1.21A7.12,7.12,0,0,1,364,214a8.58,8.58,0,0,1-.39-2.63,8.2,8.2,0,0,1,.43-2.69,7,7,0,0,1,1.23-2.23,5.75,5.75,0,0,1,1.81-1.47,4.88,4.88,0,0,1,2.21-.52h.23v13c.49,0,.84.07,1.05.07a4.74,4.74,0,0,0,3.81-1.68,5.93,5.93,0,0,0,.75-1.09A12.44,12.44,0,0,0,375.82,213.15Zm.85-1.86h-5.85v-6.86a9.28,9.28,0,0,1,1.38.2,3.21,3.21,0,0,1,1,.41,5.43,5.43,0,0,1,1.88,1.55,7.47,7.47,0,0,1,1,1.64,6.57,6.57,0,0,1,.52,1.8A12.54,12.54,0,0,1,376.67,211.29Z"/><path class="cls-2" d="M399.6,213.15l.58.32a12.26,12.26,0,0,1-.49,1.44,5.74,5.74,0,0,1-.62,1.06,4.93,4.93,0,0,1-1.79,1.62,7.1,7.1,0,0,1-3.34.73,8.06,8.06,0,0,1-2-.23,5.6,5.6,0,0,1-1.63-.69,5.11,5.11,0,0,1-1.3-1.21,7.12,7.12,0,0,1-1.16-2.2,8.58,8.58,0,0,1-.39-2.63,8.2,8.2,0,0,1,.43-2.69,7,7,0,0,1,1.23-2.23,5.75,5.75,0,0,1,1.81-1.47,4.88,4.88,0,0,1,2.21-.52h.23v13c.49,0,.84.07,1.05.07a4.74,4.74,0,0,0,3.81-1.68,5.93,5.93,0,0,0,.75-1.09A12.44,12.44,0,0,0,399.6,213.15Zm.86-1.86H394.6v-6.86a9.28,9.28,0,0,1,1.38.2,3.21,3.21,0,0,1,1,.41,5.43,5.43,0,0,1,1.88,1.55,7.1,7.1,0,0,1,1,1.64,6.57,6.57,0,0,1,.52,1.8C400.4,210.36,400.44,210.79,400.46,211.29Z"/><path class="cls-2" d="M402.08,218.23V204.67H408v2a6.79,6.79,0,0,1,1.58-1.48,2.78,2.78,0,0,1,1.52-.46,2.34,2.34,0,0,1,1.29.37,2.42,2.42,0,0,1,.91,1.06,3.45,3.45,0,0,1,0,2.88,2.45,2.45,0,0,1-.82,1,2,2,0,0,1-1.15.38,2,2,0,0,1-1.65-.84,3.19,3.19,0,0,1-.68-2.08,4.58,4.58,0,0,1,.15-1.09A7.3,7.3,0,0,0,408,207.7v10.53Z"/><path class="cls-2" d="M428,218.23l-4.35-13.56H430l3.83,11.8-.55,1.76Zm6.52-3.87-3.13-9.69h6.2Z"/><path class="cls-2" d="M444,209.85v8.38h-2a3.53,3.53,0,0,1-2.65-1.22,3.83,3.83,0,0,1-.76-1.33,5,5,0,0,1-.26-1.69,4.85,4.85,0,0,1,.75-2.7,4.43,4.43,0,0,1,1-1.1,3.18,3.18,0,0,0,.93.63,2.21,2.21,0,0,0,.95.19,2.24,2.24,0,0,0,1.1-.27A3.4,3.4,0,0,0,444,209.85Zm-2.16-5.25a1.88,1.88,0,0,1,1.12.37,2.49,2.49,0,0,1,.81,1,3.34,3.34,0,0,1,.29,1.4,3.26,3.26,0,0,1-.29,1.39,2.67,2.67,0,0,1-.81,1,1.87,1.87,0,0,1-2.23,0,2.59,2.59,0,0,1-.81-1,3.27,3.27,0,0,1-.29-1.37,3.38,3.38,0,0,1,.29-1.38,2.39,2.39,0,0,1,.81-1A1.93,1.93,0,0,1,441.79,204.6Zm3.44,13.63V204.58h1.18a5.29,5.29,0,0,1,2.7.63,3.76,3.76,0,0,1,1.61,1.94,8.83,8.83,0,0,1,.53,3.28v7.8Z"/><path class="cls-2" d="M457.77,214.94,455.7,214a4.72,4.72,0,0,1-2.18-1.85,5.22,5.22,0,0,1-.78-2.81,5.37,5.37,0,0,1,.58-2.49,4.43,4.43,0,0,1,1.54-1.79,3.8,3.8,0,0,1,2.15-.64,2.17,2.17,0,0,1,.37,0,4.92,4.92,0,0,0-.38.7,1.73,1.73,0,0,0-.08.58c0,.9.62,1.67,1.88,2.31l1.33.64a6.62,6.62,0,0,1,1.78,1.28,4.86,4.86,0,0,1,1.08,1.66,5.35,5.35,0,0,1,.37,2,5.55,5.55,0,0,1-.48,2.33,4.39,4.39,0,0,1-1.33,1.68,3.18,3.18,0,0,1-1.87.62c-.27,0-.62,0-1-.07a2.36,2.36,0,0,0,.53-1.4A2,2,0,0,0,457.77,214.94Zm-3-.69a1.43,1.43,0,0,1,.84.28,2,2,0,0,1,.61.76,2.5,2.5,0,0,1,.23,1,2.61,2.61,0,0,1-.22,1.06,1.91,1.91,0,0,1-.62.77,1.43,1.43,0,0,1-1.7,0,1.78,1.78,0,0,1-.63-.77,2.46,2.46,0,0,1-.23-1.06,2.5,2.5,0,0,1,.23-1,1.88,1.88,0,0,1,.63-.76A1.43,1.43,0,0,1,454.72,214.25Zm6.35-10a1.43,1.43,0,0,1,.86.28,1.92,1.92,0,0,1,.63.77,2.65,2.65,0,0,1,0,2.09,1.88,1.88,0,0,1-.63.76,1.42,1.42,0,0,1-.87.29,1.46,1.46,0,0,1-1.18-.61,2.28,2.28,0,0,1-.5-1.47,2.31,2.31,0,0,1,.5-1.49A1.5,1.5,0,0,1,461.07,204.24Z"/><path class="cls-2" d="M464.81,218.23V199.87h5.93v12.7l4-4.3,5.32,10h-6.87L470.76,213h0v5.23Zm9.95-10-1.86-3.58h5.27Z"/><path class="cls-2" d="M492.93,213.15l.58.32a12.26,12.26,0,0,1-.49,1.44,5.29,5.29,0,0,1-.63,1.06,4.91,4.91,0,0,1-1.78,1.62,7.11,7.11,0,0,1-3.35.73,8.06,8.06,0,0,1-2-.23,5.54,5.54,0,0,1-1.62-.69,5.15,5.15,0,0,1-1.31-1.21,7.32,7.32,0,0,1-1.15-2.2,8.58,8.58,0,0,1-.4-2.63,8.2,8.2,0,0,1,.44-2.69,7,7,0,0,1,1.23-2.23,5.64,5.64,0,0,1,1.81-1.47,4.88,4.88,0,0,1,2.21-.52h.23v13c.49,0,.84.07,1,.07a4.77,4.77,0,0,0,3.81-1.68,5.93,5.93,0,0,0,.75-1.09A12.44,12.44,0,0,0,492.93,213.15Zm.85-1.86h-5.86v-6.86a8.9,8.9,0,0,1,1.38.2,3.17,3.17,0,0,1,1,.41,5.53,5.53,0,0,1,1.88,1.55,7.47,7.47,0,0,1,1,1.64,6.57,6.57,0,0,1,.52,1.8C493.73,210.36,493.76,210.79,493.78,211.29Z"/><path class="cls-2" d="M495.54,213.77v-9.1l5.87-2.59v2.59h1.91v1h-1.84V218.4H501a6.4,6.4,0,0,1-2.81-.61,4.69,4.69,0,0,1-2-1.67A4.14,4.14,0,0,1,495.54,213.77Z"/><path class="cls-2" d="M514.28,218.23V199.87h5.92v18.36Zm13.18,0h-6V204.65a6.62,6.62,0,0,1,1.47-.18,5.06,5.06,0,0,1,1.89.33,3.89,3.89,0,0,1,1.44,1,4.32,4.32,0,0,1,.89,1.58,7,7,0,0,1,.31,2.11Z"/><path class="cls-2" d="M532.83,218.23l-4.35-13.56h6.36l3.84,11.8-.56,1.76Zm6.53-3.87-3.14-9.69h6.21Z"/><path class="cls-2" d="M546.42,199.63a4.1,4.1,0,0,1,2.3.57,1.7,1.7,0,0,1,.87,1.5,1.46,1.46,0,0,1-.39,1,2.39,2.39,0,0,1-1.06.69,4.08,4.08,0,0,1-1.54.26,3.84,3.84,0,0,1-2.16-.54,1.7,1.7,0,0,1-.81-1.47,1.74,1.74,0,0,1,.77-1.45A3.45,3.45,0,0,1,546.42,199.63Zm-2.75,18.6V204.67h6v13.56Z"/><path class="cls-2" d="M557.56,204.6v13.61h-.37a7.64,7.64,0,0,1-1.24-.08,4,4,0,0,1-1.06-.36,5,5,0,0,1-1.86-1.39,6.64,6.64,0,0,1-1.22-2.22,8.4,8.4,0,0,1-.42-2.7,8.06,8.06,0,0,1,.92-3.78,5.8,5.8,0,0,1,2.42-2.48,4.92,4.92,0,0,1,2.14-.57l.13,0h.56Zm1.25,13.63V199.87h6v18.36Z"/><path class="cls-2" d="M578.59,213.15l.57.32a10.64,10.64,0,0,1-.49,1.44,4.8,4.8,0,0,1-.62,1.06,4.93,4.93,0,0,1-1.79,1.62,7.07,7.07,0,0,1-3.34.73,8.06,8.06,0,0,1-2-.23,5.6,5.6,0,0,1-1.63-.69,5.11,5.11,0,0,1-1.3-1.21,7.1,7.1,0,0,1-1.15-2.2,8.28,8.28,0,0,1-.4-2.63,8.2,8.2,0,0,1,.43-2.69,7,7,0,0,1,1.23-2.23,5.79,5.79,0,0,1,1.82-1.47,4.85,4.85,0,0,1,2.21-.52h.22v13c.5,0,.85.07,1.05.07a4.74,4.74,0,0,0,3.81-1.68,6.57,6.57,0,0,0,.76-1.09A16,16,0,0,0,578.59,213.15Zm.85-1.86h-5.86v-6.86a8.9,8.9,0,0,1,1.38.2,3.12,3.12,0,0,1,1,.41,5.43,5.43,0,0,1,1.88,1.55,7.1,7.1,0,0,1,1,1.64,6.24,6.24,0,0,1,.52,1.8A12.17,12.17,0,0,1,579.44,211.29Z"/><path class="cls-3" d="M454,382H279a21,21,0,0,1-21-21V292a21,21,0,0,1,21-21H454a21,21,0,0,1,21,21v69A21,21,0,0,1,454,382ZM279,289a3,3,0,0,0-3,3v69a3,3,0,0,0,3,3H454a3,3,0,0,0,3-3V292a3,3,0,0,0-3-3Z"/><circle class="cls-3" cx="276.5" cy="289.5" r="16.5"/><circle class="cls-3" cx="455.5" cy="289.5" r="16.5"/><circle class="cls-3" cx="457.5" cy="362.5" r="16.5"/><circle class="cls-3" cx="276.5" cy="362.5" r="16.5"/><path class="cls-3" d="M347.52,345.85V328.26l10.22,10v7.57Zm13.2-38v-4.38h6.94v11.58l10.1,10.34a13.24,13.24,0,0,1,4.17,9.46,12.1,12.1,0,0,1-1.35,5.88,9.46,9.46,0,0,1-4,3.82,11.35,11.35,0,0,1-2.68,1,23.1,23.1,0,0,1-3.56.37l-2.68-2.55v6.69h-7V336.5l-7-6.86q-6-5.89-6-12.86a15.64,15.64,0,0,1,.58-4.41,10,10,0,0,1,1.69-3.46,8.78,8.78,0,0,1,2.83-2.36,9.85,9.85,0,0,1,2.29-.93,18.65,18.65,0,0,1,3.15-.37Zm9.88,5.45v-7.12H380v16.87Z"/></g></svg>
